<?xml version="1.0" encoding="us-ascii" standalone="no"?><svg xmlns="http://www.w3.org/2000/svg" xmlns:xlink="http://www.w3.org/1999/xlink" contentStyleType="text/css" height="425px" preserveAspectRatio="none" style="width:1295px;height:425px;background:#FFFFFF;" version="1.1" viewBox="0 0 1295 425" width="1295px" zoomAndPan="magnify"><defs/><g><!--class Player--><g id="elem_Player"><rect codeLine="1" fill="#F1F1F1" height="129.4844" id="Player" rx="2.5" ry="2.5" style="stroke:#181818;stroke-width:0.5;" width="243" x="7" y="148"/><ellipse cx="104.25" cy="164" fill="#ADD1B2" rx="11" ry="11" style="stroke:#181818;stroke-width:1.0;"/><path d="M104.1875,159.8281 Q103.4375,159.8281 102.875,160.125 Q102.3125,160.4063 101.9219,160.9375 Q101.5313,161.4688 101.3281,162.25 Q101.1406,163.0156 101.1406,163.9688 Q101.1406,164.9375 101.3125,165.7031 Q101.5,166.4531 101.8594,166.9688 Q102.2344,167.4844 102.8125,167.7656 Q103.3906,168.0313 104.1875,168.0313 Q104.9219,168.0313 105.6563,167.8594 Q106.4063,167.6875 107.2813,167.3906 L107.2813,169.5469 Q106.875,169.7031 106.4844,169.8281 Q106.0938,169.9375 105.6875,170.0156 Q105.2813,170.0938 104.8594,170.125 Q104.4375,170.1719 103.9375,170.1719 Q102.5313,170.1719 101.5,169.7188 Q100.4844,169.2656 99.8125,168.4531 Q99.1406,167.6406 98.8125,166.5 Q98.4844,165.3438 98.4844,163.9531 Q98.4844,162.5781 98.8594,161.4219 Q99.2344,160.2656 99.9531,159.4375 Q100.6719,158.6094 101.7344,158.1563 Q102.7969,157.6875 104.1875,157.6875 Q105.0938,157.6875 106,157.9219 Q106.9063,158.1406 107.7344,158.5469 L106.9063,160.6406 Q106.2188,160.3125 105.5313,160.0781 Q104.8438,159.8281 104.1875,159.8281 Z " fill="#000000"/><text fill="#000000" font-family="sans-serif" font-size="14" lengthAdjust="spacing" textLength="40" x="124.75" y="168.8467">Player</text><line style="stroke:#181818;stroke-width:0.5;" x1="8" x2="249" y1="180" y2="180"/><line style="stroke:#181818;stroke-width:0.5;" x1="8" x2="249" y1="188" y2="188"/><ellipse cx="18" cy="201.6484" fill="#84BE84" rx="3" ry="3" style="stroke:#038048;stroke-width:1.0;"/><text fill="#000000" font-family="sans-serif" font-size="14" lengthAdjust="spacing" textLength="217" x="27" y="204.9951">updateMoney(ammount:int) : void</text><ellipse cx="18" cy="217.9453" fill="#84BE84" rx="3" ry="3" style="stroke:#038048;stroke-width:1.0;"/><text fill="#000000" font-family="sans-serif" font-size="14" lengthAdjust="spacing" textLength="100" x="27" y="221.292">getMoney() : int</text><text fill="#000000" font-family="sans-serif" font-size="14" lengthAdjust="spacing" textLength="77" x="27" y="237.5889">Start() : void</text><text fill="#000000" font-family="sans-serif" font-size="14" lengthAdjust="spacing" textLength="93" x="27" y="253.8857">Update() : void</text><text fill="#000000" font-family="sans-serif" font-size="14" lengthAdjust="spacing" textLength="120" x="27" y="270.1826">checkDeath() : void</text></g><!--class MonoBehaviour--><g id="elem_MonoBehaviour"><rect fill="#F1F1F1" height="48" id="MonoBehaviour" rx="2.5" ry="2.5" style="stroke:#181818;stroke-width:0.5;" width="133" x="552" y="7"/><ellipse cx="567" cy="23" fill="#ADD1B2" rx="11" ry="11" style="stroke:#181818;stroke-width:1.0;"/><path d="M566.9375,18.8281 Q566.1875,18.8281 565.625,19.125 Q565.0625,19.4063 564.6719,19.9375 Q564.2813,20.4688 564.0781,21.25 Q563.8906,22.0156 563.8906,22.9688 Q563.8906,23.9375 564.0625,24.7031 Q564.25,25.4531 564.6094,25.9688 Q564.9844,26.4844 565.5625,26.7656 Q566.1406,27.0313 566.9375,27.0313 Q567.6719,27.0313 568.4063,26.8594 Q569.1563,26.6875 570.0313,26.3906 L570.0313,28.5469 Q569.625,28.7031 569.2344,28.8281 Q568.8438,28.9375 568.4375,29.0156 Q568.0313,29.0938 567.6094,29.125 Q567.1875,29.1719 566.6875,29.1719 Q565.2813,29.1719 564.25,28.7188 Q563.2344,28.2656 562.5625,27.4531 Q561.8906,26.6406 561.5625,25.5 Q561.2344,24.3438 561.2344,22.9531 Q561.2344,21.5781 561.6094,20.4219 Q561.9844,19.2656 562.7031,18.4375 Q563.4219,17.6094 564.4844,17.1563 Q565.5469,16.6875 566.9375,16.6875 Q567.8438,16.6875 568.75,16.9219 Q569.6563,17.1406 570.4844,17.5469 L569.6563,19.6406 Q568.9688,19.3125 568.2813,19.0781 Q567.5938,18.8281 566.9375,18.8281 Z " fill="#000000"/><text fill="#000000" font-family="sans-serif" font-size="14" lengthAdjust="spacing" textLength="101" x="581" y="27.8467">MonoBehaviour</text><line style="stroke:#181818;stroke-width:0.5;" x1="553" x2="684" y1="39" y2="39"/><line style="stroke:#181818;stroke-width:0.5;" x1="553" x2="684" y1="47" y2="47"/></g><!--class PlayerMovement--><g id="elem_PlayerMovement"><rect codeLine="9" fill="#F1F1F1" height="113.1875" id="PlayerMovement" rx="2.5" ry="2.5" style="stroke:#181818;stroke-width:0.5;" width="180" x="285.5" y="156"/><ellipse cx="318.05" cy="172" fill="#ADD1B2" rx="11" ry="11" style="stroke:#181818;stroke-width:1.0;"/><path d="M317.9875,167.8281 Q317.2375,167.8281 316.675,168.125 Q316.1125,168.4063 315.7219,168.9375 Q315.3313,169.4688 315.1281,170.25 Q314.9406,171.0156 314.9406,171.9688 Q314.9406,172.9375 315.1125,173.7031 Q315.3,174.4531 315.6594,174.9688 Q316.0344,175.4844 316.6125,175.7656 Q317.1906,176.0313 317.9875,176.0313 Q318.7219,176.0313 319.4563,175.8594 Q320.2063,175.6875 321.0813,175.3906 L321.0813,177.5469 Q320.675,177.7031 320.2844,177.8281 Q319.8938,177.9375 319.4875,178.0156 Q319.0813,178.0938 318.6594,178.125 Q318.2375,178.1719 317.7375,178.1719 Q316.3313,178.1719 315.3,177.7188 Q314.2844,177.2656 313.6125,176.4531 Q312.9406,175.6406 312.6125,174.5 Q312.2844,173.3438 312.2844,171.9531 Q312.2844,170.5781 312.6594,169.4219 Q313.0344,168.2656 313.7531,167.4375 Q314.4719,166.6094 315.5344,166.1563 Q316.5969,165.6875 317.9875,165.6875 Q318.8938,165.6875 319.8,165.9219 Q320.7063,166.1406 321.5344,166.5469 L320.7063,168.6406 Q320.0188,168.3125 319.3313,168.0781 Q318.6438,167.8281 317.9875,167.8281 Z " fill="#000000"/><text fill="#000000" font-family="sans-serif" font-size="14" lengthAdjust="spacing" textLength="109" x="335.95" y="176.8467">PlayerMovement</text><line style="stroke:#181818;stroke-width:0.5;" x1="286.5" x2="464.5" y1="188" y2="188"/><ellipse cx="296.5" cy="201.6484" fill="none" rx="3" ry="3" style="stroke:#038048;stroke-width:1.0;"/><text fill="#000000" font-family="sans-serif" font-size="14" lengthAdjust="spacing" textLength="154" x="305.5" y="204.9951">jumpSpeed : float = 8.0f</text><line style="stroke:#181818;stroke-width:0.5;" x1="286.5" x2="464.5" y1="212.2969" y2="212.2969"/><text fill="#000000" font-family="sans-serif" font-size="14" lengthAdjust="spacing" textLength="77" x="291.5" y="229.292">Start() : void</text><text fill="#000000" font-family="sans-serif" font-size="14" lengthAdjust="spacing" textLength="127" x="291.5" y="245.5889">FixedUpdate() : void</text><text fill="#000000" font-family="sans-serif" font-size="14" lengthAdjust="spacing" textLength="93" x="291.5" y="261.8857">Update() : void</text></g><!--class GameManager--><g id="elem_GameManager"><rect codeLine="16" fill="#F1F1F1" height="194.6719" id="GameManager" rx="2.5" ry="2.5" style="stroke:#181818;stroke-width:0.5;" width="236" x="500.5" y="115"/><ellipse cx="567.75" cy="131" fill="#ADD1B2" rx="11" ry="11" style="stroke:#181818;stroke-width:1.0;"/><path d="M567.6875,126.8281 Q566.9375,126.8281 566.375,127.125 Q565.8125,127.4063 565.4219,127.9375 Q565.0313,128.4688 564.8281,129.25 Q564.6406,130.0156 564.6406,130.9688 Q564.6406,131.9375 564.8125,132.7031 Q565,133.4531 565.3594,133.9688 Q565.7344,134.4844 566.3125,134.7656 Q566.8906,135.0313 567.6875,135.0313 Q568.4219,135.0313 569.1563,134.8594 Q569.9063,134.6875 570.7813,134.3906 L570.7813,136.5469 Q570.375,136.7031 569.9844,136.8281 Q569.5938,136.9375 569.1875,137.0156 Q568.7813,137.0938 568.3594,137.125 Q567.9375,137.1719 567.4375,137.1719 Q566.0313,137.1719 565,136.7188 Q563.9844,136.2656 563.3125,135.4531 Q562.6406,134.6406 562.3125,133.5 Q561.9844,132.3438 561.9844,130.9531 Q561.9844,129.5781 562.3594,128.4219 Q562.7344,127.2656 563.4531,126.4375 Q564.1719,125.6094 565.2344,125.1563 Q566.2969,124.6875 567.6875,124.6875 Q568.5938,124.6875 569.5,124.9219 Q570.4063,125.1406 571.2344,125.5469 L570.4063,127.6406 Q569.7188,127.3125 569.0313,127.0781 Q568.3438,126.8281 567.6875,126.8281 Z " fill="#000000"/><text fill="#000000" font-family="sans-serif" font-size="14" lengthAdjust="spacing" textLength="93" x="588.25" y="135.8467">GameManager</text><line style="stroke:#181818;stroke-width:0.5;" x1="501.5" x2="735.5" y1="147" y2="147"/><line style="stroke:#181818;stroke-width:0.5;" x1="501.5" x2="735.5" y1="155" y2="155"/><ellipse cx="511.5" cy="168.6484" fill="#84BE84" rx="3" ry="3" style="stroke:#038048;stroke-width:1.0;"/><text fill="#000000" font-family="sans-serif" font-size="14" lengthAdjust="spacing" textLength="185" x="520.5" y="171.9951">setGameOver(val:bool) : void</text><ellipse cx="511.5" cy="184.9453" fill="#84BE84" rx="3" ry="3" style="stroke:#038048;stroke-width:1.0;"/><text fill="#000000" font-family="sans-serif" font-size="14" lengthAdjust="spacing" textLength="206" x="520.5" y="188.292">UpdateMoney(amount:int) : void</text><ellipse cx="511.5" cy="201.2422" fill="#84BE84" rx="3" ry="3" style="stroke:#038048;stroke-width:1.0;"/><text fill="#000000" font-family="sans-serif" font-size="14" lengthAdjust="spacing" textLength="210" x="520.5" y="204.5889">UpdateScore(amount:float) : void</text><text fill="#000000" font-family="sans-serif" font-size="14" lengthAdjust="spacing" textLength="77" x="520.5" y="220.8857">Start() : void</text><text fill="#000000" font-family="sans-serif" font-size="14" lengthAdjust="spacing" textLength="122" x="520.5" y="237.1826">PauseGame() : void</text><text fill="#000000" font-family="sans-serif" font-size="14" lengthAdjust="spacing" textLength="136" x="520.5" y="253.4795">ResumeGame() : void</text><text fill="#000000" font-family="sans-serif" font-size="14" lengthAdjust="spacing" textLength="93" x="520.5" y="269.7764">Update() : void</text><text fill="#000000" font-family="sans-serif" font-size="14" lengthAdjust="spacing" textLength="127" x="520.5" y="286.0732">FixedUpdate() : void</text><ellipse cx="511.5" cy="299.0234" fill="#84BE84" rx="3" ry="3" style="stroke:#038048;stroke-width:1.0;"/><text fill="#000000" font-family="sans-serif" font-size="14" lengthAdjust="spacing" textLength="92" x="520.5" y="302.3701">Restart() : void</text></g><!--class Text--><g id="elem_Text"><rect fill="#F1F1F1" height="48" id="Text" rx="2.5" ry="2.5" style="stroke:#181818;stroke-width:0.5;" width="59" x="589" y="370"/><ellipse cx="604" cy="386" fill="#ADD1B2" rx="11" ry="11" style="stroke:#181818;stroke-width:1.0;"/><path d="M603.9375,381.8281 Q603.1875,381.8281 602.625,382.125 Q602.0625,382.4063 601.6719,382.9375 Q601.2813,383.4688 601.0781,384.25 Q600.8906,385.0156 600.8906,385.9688 Q600.8906,386.9375 601.0625,387.7031 Q601.25,388.4531 601.6094,388.9688 Q601.9844,389.4844 602.5625,389.7656 Q603.1406,390.0313 603.9375,390.0313 Q604.6719,390.0313 605.4063,389.8594 Q606.1563,389.6875 607.0313,389.3906 L607.0313,391.5469 Q606.625,391.7031 606.2344,391.8281 Q605.8438,391.9375 605.4375,392.0156 Q605.0313,392.0938 604.6094,392.125 Q604.1875,392.1719 603.6875,392.1719 Q602.2813,392.1719 601.25,391.7188 Q600.2344,391.2656 599.5625,390.4531 Q598.8906,389.6406 598.5625,388.5 Q598.2344,387.3438 598.2344,385.9531 Q598.2344,384.5781 598.6094,383.4219 Q598.9844,382.2656 599.7031,381.4375 Q600.4219,380.6094 601.4844,380.1563 Q602.5469,379.6875 603.9375,379.6875 Q604.8438,379.6875 605.75,379.9219 Q606.6563,380.1406 607.4844,380.5469 L606.6563,382.6406 Q605.9688,382.3125 605.2813,382.0781 Q604.5938,381.8281 603.9375,381.8281 Z " fill="#000000"/><text fill="#000000" font-family="sans-serif" font-size="14" lengthAdjust="spacing" textLength="27" x="618" y="390.8467">Text</text><line style="stroke:#181818;stroke-width:0.5;" x1="590" x2="647" y1="402" y2="402"/><line style="stroke:#181818;stroke-width:0.5;" x1="590" x2="647" y1="410" y2="410"/></g><!--class Coin--><g id="elem_Coin"><rect codeLine="31" fill="#F1F1F1" height="96.8906" id="Coin" rx="2.5" ry="2.5" style="stroke:#181818;stroke-width:0.5;" width="170" x="789.5" y="164"/><ellipse cx="856.25" cy="180" fill="#ADD1B2" rx="11" ry="11" style="stroke:#181818;stroke-width:1.0;"/><path d="M856.1875,175.8281 Q855.4375,175.8281 854.875,176.125 Q854.3125,176.4063 853.9219,176.9375 Q853.5313,177.4688 853.3281,178.25 Q853.1406,179.0156 853.1406,179.9688 Q853.1406,180.9375 853.3125,181.7031 Q853.5,182.4531 853.8594,182.9688 Q854.2344,183.4844 854.8125,183.7656 Q855.3906,184.0313 856.1875,184.0313 Q856.9219,184.0313 857.6563,183.8594 Q858.4063,183.6875 859.2813,183.3906 L859.2813,185.5469 Q858.875,185.7031 858.4844,185.8281 Q858.0938,185.9375 857.6875,186.0156 Q857.2813,186.0938 856.8594,186.125 Q856.4375,186.1719 855.9375,186.1719 Q854.5313,186.1719 853.5,185.7188 Q852.4844,185.2656 851.8125,184.4531 Q851.1406,183.6406 850.8125,182.5 Q850.4844,181.3438 850.4844,179.9531 Q850.4844,178.5781 850.8594,177.4219 Q851.2344,176.2656 851.9531,175.4375 Q852.6719,174.6094 853.7344,174.1563 Q854.7969,173.6875 856.1875,173.6875 Q857.0938,173.6875 858,173.9219 Q858.9063,174.1406 859.7344,174.5469 L858.9063,176.6406 Q858.2188,176.3125 857.5313,176.0781 Q856.8438,175.8281 856.1875,175.8281 Z " fill="#000000"/><text fill="#000000" font-family="sans-serif" font-size="14" lengthAdjust="spacing" textLength="28" x="876.75" y="184.8467">Coin</text><line style="stroke:#181818;stroke-width:0.5;" x1="790.5" x2="958.5" y1="196" y2="196"/><ellipse cx="800.5" cy="209.6484" fill="none" rx="3" ry="3" style="stroke:#038048;stroke-width:1.0;"/><text fill="#000000" font-family="sans-serif" font-size="14" lengthAdjust="spacing" textLength="144" x="809.5" y="212.9951">turnSpeed : float = 90f</text><line style="stroke:#181818;stroke-width:0.5;" x1="790.5" x2="958.5" y1="220.2969" y2="220.2969"/><text fill="#000000" font-family="sans-serif" font-size="14" lengthAdjust="spacing" textLength="77" x="795.5" y="237.292">Start() : void</text><text fill="#000000" font-family="sans-serif" font-size="14" lengthAdjust="spacing" textLength="93" x="795.5" y="253.5889">Update() : void</text></g><!--class SpawnTile--><g id="elem_SpawnTile"><rect codeLine="37" fill="#F1F1F1" height="129.4844" id="SpawnTile" rx="2.5" ry="2.5" style="stroke:#181818;stroke-width:0.5;" width="263" x="995" y="148"/><ellipse cx="1090.75" cy="164" fill="#ADD1B2" rx="11" ry="11" style="stroke:#181818;stroke-width:1.0;"/><path d="M1090.6875,159.8281 Q1089.9375,159.8281 1089.375,160.125 Q1088.8125,160.4063 1088.4219,160.9375 Q1088.0313,161.4688 1087.8281,162.25 Q1087.6406,163.0156 1087.6406,163.9688 Q1087.6406,164.9375 1087.8125,165.7031 Q1088,166.4531 1088.3594,166.9688 Q1088.7344,167.4844 1089.3125,167.7656 Q1089.8906,168.0313 1090.6875,168.0313 Q1091.4219,168.0313 1092.1563,167.8594 Q1092.9063,167.6875 1093.7813,167.3906 L1093.7813,169.5469 Q1093.375,169.7031 1092.9844,169.8281 Q1092.5938,169.9375 1092.1875,170.0156 Q1091.7813,170.0938 1091.3594,170.125 Q1090.9375,170.1719 1090.4375,170.1719 Q1089.0313,170.1719 1088,169.7188 Q1086.9844,169.2656 1086.3125,168.4531 Q1085.6406,167.6406 1085.3125,166.5 Q1084.9844,165.3438 1084.9844,163.9531 Q1084.9844,162.5781 1085.3594,161.4219 Q1085.7344,160.2656 1086.4531,159.4375 Q1087.1719,158.6094 1088.2344,158.1563 Q1089.2969,157.6875 1090.6875,157.6875 Q1091.5938,157.6875 1092.5,157.9219 Q1093.4063,158.1406 1094.2344,158.5469 L1093.4063,160.6406 Q1092.7188,160.3125 1092.0313,160.0781 Q1091.3438,159.8281 1090.6875,159.8281 Z " fill="#000000"/><text fill="#000000" font-family="sans-serif" font-size="14" lengthAdjust="spacing" textLength="63" x="1111.25" y="168.8467">SpawnTile</text><line style="stroke:#181818;stroke-width:0.5;" x1="996" x2="1257" y1="180" y2="180"/><ellipse cx="1006" cy="193.6484" fill="none" rx="3" ry="3" style="stroke:#038048;stroke-width:1.0;"/><text fill="#000000" font-family="sans-serif" font-size="14" lengthAdjust="spacing" textLength="237" x="1015" y="196.9951">maxDistanceFromPlayer : float = 0.5f</text><ellipse cx="1006" cy="209.9453" fill="none" rx="3" ry="3" style="stroke:#038048;stroke-width:1.0;"/><text fill="#000000" font-family="sans-serif" font-size="14" lengthAdjust="spacing" textLength="219" x="1015" y="213.292">distanceBetweenTiles : float = 5.0f</text><ellipse cx="1006" cy="226.2422" fill="none" rx="3" ry="3" style="stroke:#038048;stroke-width:1.0;"/><text fill="#000000" font-family="sans-serif" font-size="14" lengthAdjust="spacing" textLength="167" x="1015" y="229.5889">randomValue : float = 0.7f</text><line style="stroke:#181818;stroke-width:0.5;" x1="996" x2="1257" y1="236.8906" y2="236.8906"/><text fill="#000000" font-family="sans-serif" font-size="14" lengthAdjust="spacing" textLength="77" x="1001" y="253.8857">Start() : void</text><text fill="#000000" font-family="sans-serif" font-size="14" lengthAdjust="spacing" textLength="93" x="1001" y="270.1826">Update() : void</text></g><!--class GameObject--><g id="elem_GameObject"><rect fill="#F1F1F1" height="48" id="GameObject" rx="2.5" ry="2.5" style="stroke:#181818;stroke-width:0.5;" width="111" x="1071" y="370"/><ellipse cx="1086" cy="386" fill="#ADD1B2" rx="11" ry="11" style="stroke:#181818;stroke-width:1.0;"/><path d="M1085.9375,381.8281 Q1085.1875,381.8281 1084.625,382.125 Q1084.0625,382.4063 1083.6719,382.9375 Q1083.2813,383.4688 1083.0781,384.25 Q1082.8906,385.0156 1082.8906,385.9688 Q1082.8906,386.9375 1083.0625,387.7031 Q1083.25,388.4531 1083.6094,388.9688 Q1083.9844,389.4844 1084.5625,389.7656 Q1085.1406,390.0313 1085.9375,390.0313 Q1086.6719,390.0313 1087.4063,389.8594 Q1088.1563,389.6875 1089.0313,389.3906 L1089.0313,391.5469 Q1088.625,391.7031 1088.2344,391.8281 Q1087.8438,391.9375 1087.4375,392.0156 Q1087.0313,392.0938 1086.6094,392.125 Q1086.1875,392.1719 1085.6875,392.1719 Q1084.2813,392.1719 1083.25,391.7188 Q1082.2344,391.2656 1081.5625,390.4531 Q1080.8906,389.6406 1080.5625,388.5 Q1080.2344,387.3438 1080.2344,385.9531 Q1080.2344,384.5781 1080.6094,383.4219 Q1080.9844,382.2656 1081.7031,381.4375 Q1082.4219,380.6094 1083.4844,380.1563 Q1084.5469,379.6875 1085.9375,379.6875 Q1086.8438,379.6875 1087.75,379.9219 Q1088.6563,380.1406 1089.4844,380.5469 L1088.6563,382.6406 Q1087.9688,382.3125 1087.2813,382.0781 Q1086.5938,381.8281 1085.9375,381.8281 Z " fill="#000000"/><text fill="#000000" font-family="sans-serif" font-size="14" lengthAdjust="spacing" textLength="79" x="1100" y="390.8467">GameObject</text><line style="stroke:#181818;stroke-width:0.5;" x1="1072" x2="1181" y1="402" y2="402"/><line style="stroke:#181818;stroke-width:0.5;" x1="1072" x2="1181" y1="410" y2="410"/></g><!--reverse link MonoBehaviour to Player--><g id="link_MonoBehaviour_Player"><path codeLine="8" d="M531.65,43.27 C458.78,54.88 353.18,76.79 267.5,115 C247.65,123.86 227.66,135.65 209.27,147.96 " fill="none" id="MonoBehaviour-backto-Player" style="stroke:#181818;stroke-width:1.0;"/><polygon fill="none" points="530.93,36.3,551.76,40.2,533.04,50.14,530.93,36.3" style="stroke:#181818;stroke-width:1.0;"/></g><!--reverse link MonoBehaviour to PlayerMovement--><g id="link_MonoBehaviour_PlayerMovement"><path codeLine="15" d="M558.77,65.2 C534.45,79.54 506.47,97.12 482.5,115 C465.86,127.41 448.76,141.92 433.25,155.86 " fill="none" id="MonoBehaviour-backto-PlayerMovement" style="stroke:#181818;stroke-width:1.0;"/><polygon fill="none" points="555.32,59.11,576.13,55.13,562.34,71.22,555.32,59.11" style="stroke:#181818;stroke-width:1.0;"/></g><!--reverse link MonoBehaviour to GameManager--><g id="link_MonoBehaviour_GameManager"><path codeLine="27" d="M618.5,75.44 C618.5,87.49 618.5,101.08 618.5,114.89 " fill="none" id="MonoBehaviour-backto-GameManager" style="stroke:#181818;stroke-width:1.0;"/><polygon fill="none" points="611.5,75.1,618.5,55.1,625.5,75.1,611.5,75.1" style="stroke:#181818;stroke-width:1.0;"/></g><!--link GameManager to Text--><g id="link_GameManager_Text"><path codeLine="28" d="M605.78,310.08 C605.98,330.03 607.01,349.54 608.89,364.61 " fill="none" id="GameManager-to-Text" style="stroke:#181818;stroke-width:1.0;"/><polygon fill="#181818" points="609.63,369.95,612.3591,360.4868,608.9449,364.9972,604.4345,361.583,609.63,369.95" style="stroke:#181818;stroke-width:1.0;"/><text fill="#000000" font-family="sans-serif" font-size="13" lengthAdjust="spacing" textLength="66" x="532.9008" y="358.9492">moneyText</text></g><!--link GameManager to Text--><g id="link_GameManager_Text"><path codeLine="29" d="M631.97,310.08 C631.76,330.21 630.64,349.88 628.62,365 " fill="none" id="GameManager-to-Text-1" style="stroke:#181818;stroke-width:1.0;"/><polygon fill="#181818" points="627.9,369.95,633.1697,361.6295,628.6291,365.0034,625.2552,360.4629,627.9,369.95" style="stroke:#181818;stroke-width:1.0;"/><text fill="#000000" font-family="sans-serif" font-size="13" lengthAdjust="spacing" textLength="57" x="637.6119" y="358.9492">scoreText</text></g><!--link GameManager to GameManager--><g id="link_GameManager_GameManager"><path codeLine="30" d="M736.54,180.86 C757.16,185.08 771.5,195.62 771.5,212.5 C771.5,227.92 759.52,238.06 741.71,242.91 " fill="none" id="GameManager-to-GameManager" style="stroke:#181818;stroke-width:1.0;"/><polygon fill="#181818" points="736.54,244.14,746.2208,245.9518,741.4046,242.9845,744.3719,238.1683,736.54,244.14" style="stroke:#181818;stroke-width:1.0;"/><text fill="#000000" font-family="sans-serif" font-size="13" lengthAdjust="spacing" textLength="49" x="732.7781" y="245.339">instance</text></g><!--reverse link MonoBehaviour to Coin--><g id="link_MonoBehaviour_Coin"><path codeLine="36" d="M686.82,64.3 C714.1,78.4 745.22,96.04 771.5,115 C791.47,129.41 811.64,147.38 828.77,163.89 " fill="none" id="MonoBehaviour-backto-Coin" style="stroke:#181818;stroke-width:1.0;"/><polygon fill="none" points="683.35,70.39,668.65,55.13,689.65,57.89,683.35,70.39" style="stroke:#181818;stroke-width:1.0;"/></g><!--reverse link MonoBehaviour to SpawnTile--><g id="link_MonoBehaviour_SpawnTile"><path codeLine="44" d="M705.25,43.55 C779.41,55.42 887.86,77.55 976.5,115 C997.47,123.86 1018.76,135.58 1038.46,147.8 " fill="none" id="MonoBehaviour-backto-SpawnTile" style="stroke:#181818;stroke-width:1.0;"/><polygon fill="none" points="703.99,50.44,685.29,40.48,706.12,36.61,703.99,50.44" style="stroke:#181818;stroke-width:1.0;"/></g><!--link SpawnTile to GameObject--><g id="link_SpawnTile_GameObject"><path codeLine="45" d="M1076.04,277.04 C1071.2,307.29 1074.97,341.91 1087.35,365.38 " fill="none" id="SpawnTile-to-GameObject" style="stroke:#181818;stroke-width:1.0;"/><polygon fill="#181818" points="1089.94,369.92,1088.9408,360.122,1087.4562,365.5805,1081.9977,364.096,1089.94,369.92" style="stroke:#181818;stroke-width:1.0;"/><text fill="#000000" font-family="sans-serif" font-size="13" lengthAdjust="spacing" textLength="72" x="999.3465" y="358.9115">tileToSpawn</text></g><!--link SpawnTile to GameObject--><g id="link_SpawnTile_GameObject"><path codeLine="46" d="M1101.27,277.04 C1098.86,307.17 1100.72,341.62 1106.85,365.09 " fill="none" id="SpawnTile-to-GameObject-1" style="stroke:#181818;stroke-width:1.0;"/><polygon fill="#181818" points="1108.22,369.92,1109.628,360.1723,1106.8634,365.1076,1101.9281,362.3429,1108.22,369.92" style="stroke:#181818;stroke-width:1.0;"/><text fill="#000000" font-family="sans-serif" font-size="13" lengthAdjust="spacing" textLength="94" x="1115.5795" y="358.9115">referenceObject</text></g><!--link SpawnTile to GameObject--><g id="link_SpawnTile_GameObject"><path codeLine="47" d="M1126.5,277.04 C1126.5,307.04 1126.5,341.33 1126.5,364.79 " fill="none" id="SpawnTile-to-GameObject-2" style="stroke:#181818;stroke-width:1.0;"/><polygon fill="#181818" points="1126.5,369.92,1130.5,360.92,1126.5,364.92,1122.5,360.92,1126.5,369.92" style="stroke:#181818;stroke-width:1.0;"/><text fill="#000000" font-family="sans-serif" font-size="13" lengthAdjust="spacing" textLength="36" x="1085.8875" y="358.9115">player</text></g><!--link SpawnTile to GameObject--><g id="link_SpawnTile_GameObject"><path codeLine="48" d="M1151.73,277.04 C1154.14,307.17 1152.28,341.62 1146.15,365.09 " fill="none" id="SpawnTile-to-GameObject-3" style="stroke:#181818;stroke-width:1.0;"/><polygon fill="#181818" points="1144.78,369.92,1151.0719,362.3429,1146.1366,365.1076,1143.372,360.1723,1144.78,369.92" style="stroke:#181818;stroke-width:1.0;"/><text fill="#000000" font-family="sans-serif" font-size="13" lengthAdjust="spacing" textLength="99" x="1189.6843" y="371.0466">groundToSpawn</text></g><!--link SpawnTile to GameObject--><g id="link_SpawnTile_GameObject"><path codeLine="49" d="M1176.96,277.04 C1181.8,307.29 1178.03,341.91 1165.65,365.38 " fill="none" id="SpawnTile-to-GameObject-4" style="stroke:#181818;stroke-width:1.0;"/><polygon fill="#181818" points="1163.06,369.92,1171.0023,364.096,1165.5438,365.5805,1164.0592,360.122,1163.06,369.92" style="stroke:#181818;stroke-width:1.0;"/><text fill="#000000" font-family="sans-serif" font-size="13" lengthAdjust="spacing" textLength="63" x="1180.5004" y="358.9115">coinPrefab</text></g><!--SRC=[fLFBRe905Dtp5HDNDWRZnhGrRHVMs9NH5Et-EbnqB3D3XW4rRV-zmqC42iIaB0WvStBFOoxKXp0aAn_EgCYNHSmp857WWiQ557Zk0-So4dh2XBuZ4n9BvkQi7UgCak3cE8KT3KhtAynDEgsAqJtIpnc2tb_n7ykCarFSGynafCZJjstdpYnQihcGCN8Kkh1xY7ZW18YkcUJv4ZHv9W_3aTTcQCvEw3QvgcCTZYucScTlm7410dQb5aFK2RoCKVLZy2TRAVrQXPjAqIqzPoI7IeKNKfgoGck8kO8enCH15Nx7CE8DU5CXhKqDaZ5LoSQoIhrOvOvi-uNqU99xZIVT8ydxBo5CCdSHc30c1CLUHIYxabV9H74NEbAYlYAFxHjoqo8a0hcM4y1Hh9cFXI27qunbvkPAylm7kugFXcClfxevRuhwY9YE2KlCyMMJ1qI1S2N_03_2ogZx_mKft5lN76czsdojPGfc3I-t1wIwJbFeeKAJ83lkeWPf3rsCdJ8RxjwWIatzAoCDspBh5m00]--></g></svg>