<?xml version="1.0" encoding="us-ascii" standalone="no"?><svg xmlns="http://www.w3.org/2000/svg" xmlns:xlink="http://www.w3.org/1999/xlink" contentStyleType="text/css" height="522px" preserveAspectRatio="none" style="width:1896px;height:522px;background:#FFFFFF;" version="1.1" viewBox="0 0 1896 522" width="1896px" zoomAndPan="magnify"><defs/><g><!--class ScorePowerUp--><g id="elem_ScorePowerUp"><rect codeLine="1" fill="#F1F1F1" height="96.8906" id="ScorePowerUp" rx="2.5" ry="2.5" style="stroke:#181818;stroke-width:0.5;" width="170" x="7" y="212.5"/><ellipse cx="42.25" cy="228.5" fill="#ADD1B2" rx="11" ry="11" style="stroke:#181818;stroke-width:1.0;"/><path d="M42.1875,224.3281 Q41.4375,224.3281 40.875,224.625 Q40.3125,224.9063 39.9219,225.4375 Q39.5313,225.9688 39.3281,226.75 Q39.1406,227.5156 39.1406,228.4688 Q39.1406,229.4375 39.3125,230.2031 Q39.5,230.9531 39.8594,231.4688 Q40.2344,231.9844 40.8125,232.2656 Q41.3906,232.5313 42.1875,232.5313 Q42.9219,232.5313 43.6563,232.3594 Q44.4063,232.1875 45.2813,231.8906 L45.2813,234.0469 Q44.875,234.2031 44.4844,234.3281 Q44.0938,234.4375 43.6875,234.5156 Q43.2813,234.5938 42.8594,234.625 Q42.4375,234.6719 41.9375,234.6719 Q40.5313,234.6719 39.5,234.2188 Q38.4844,233.7656 37.8125,232.9531 Q37.1406,232.1406 36.8125,231 Q36.4844,229.8438 36.4844,228.4531 Q36.4844,227.0781 36.8594,225.9219 Q37.2344,224.7656 37.9531,223.9375 Q38.6719,223.1094 39.7344,222.6563 Q40.7969,222.1875 42.1875,222.1875 Q43.0938,222.1875 44,222.4219 Q44.9063,222.6406 45.7344,223.0469 L44.9063,225.1406 Q44.2188,224.8125 43.5313,224.5781 Q42.8438,224.3281 42.1875,224.3281 Z " fill="#000000"/><text fill="#000000" font-family="sans-serif" font-size="14" lengthAdjust="spacing" textLength="93" x="60.75" y="233.3467">ScorePowerUp</text><line style="stroke:#181818;stroke-width:0.5;" x1="8" x2="176" y1="244.5" y2="244.5"/><ellipse cx="18" cy="258.1484" fill="none" rx="3" ry="3" style="stroke:#038048;stroke-width:1.0;"/><text fill="#000000" font-family="sans-serif" font-size="14" lengthAdjust="spacing" textLength="144" x="27" y="261.4951">turnSpeed : float = 90f</text><line style="stroke:#181818;stroke-width:0.5;" x1="8" x2="176" y1="268.7969" y2="268.7969"/><text fill="#000000" font-family="sans-serif" font-size="14" lengthAdjust="spacing" textLength="77" x="13" y="285.792">Start() : void</text><text fill="#000000" font-family="sans-serif" font-size="14" lengthAdjust="spacing" textLength="93" x="13" y="302.0889">Update() : void</text></g><!--class MonoBehaviour--><g id="elem_MonoBehaviour"><rect fill="#F1F1F1" height="48" id="MonoBehaviour" rx="2.5" ry="2.5" style="stroke:#181818;stroke-width:0.5;" width="133" x="981.5" y="7"/><ellipse cx="996.5" cy="23" fill="#ADD1B2" rx="11" ry="11" style="stroke:#181818;stroke-width:1.0;"/><path d="M996.4375,18.8281 Q995.6875,18.8281 995.125,19.125 Q994.5625,19.4063 994.1719,19.9375 Q993.7813,20.4688 993.5781,21.25 Q993.3906,22.0156 993.3906,22.9688 Q993.3906,23.9375 993.5625,24.7031 Q993.75,25.4531 994.1094,25.9688 Q994.4844,26.4844 995.0625,26.7656 Q995.6406,27.0313 996.4375,27.0313 Q997.1719,27.0313 997.9063,26.8594 Q998.6563,26.6875 999.5313,26.3906 L999.5313,28.5469 Q999.125,28.7031 998.7344,28.8281 Q998.3438,28.9375 997.9375,29.0156 Q997.5313,29.0938 997.1094,29.125 Q996.6875,29.1719 996.1875,29.1719 Q994.7813,29.1719 993.75,28.7188 Q992.7344,28.2656 992.0625,27.4531 Q991.3906,26.6406 991.0625,25.5 Q990.7344,24.3438 990.7344,22.9531 Q990.7344,21.5781 991.1094,20.4219 Q991.4844,19.2656 992.2031,18.4375 Q992.9219,17.6094 993.9844,17.1563 Q995.0469,16.6875 996.4375,16.6875 Q997.3438,16.6875 998.25,16.9219 Q999.1563,17.1406 999.9844,17.5469 L999.1563,19.6406 Q998.4688,19.3125 997.7813,19.0781 Q997.0938,18.8281 996.4375,18.8281 Z " fill="#000000"/><text fill="#000000" font-family="sans-serif" font-size="14" lengthAdjust="spacing" textLength="101" x="1010.5" y="27.8467">MonoBehaviour</text><line style="stroke:#181818;stroke-width:0.5;" x1="982.5" x2="1113.5" y1="39" y2="39"/><line style="stroke:#181818;stroke-width:0.5;" x1="982.5" x2="1113.5" y1="47" y2="47"/></g><!--class Player--><g id="elem_Player"><rect codeLine="7" fill="#F1F1F1" height="210.9688" id="Player" rx="2.5" ry="2.5" style="stroke:#181818;stroke-width:0.5;" width="332" x="212" y="155.5"/><ellipse cx="353.75" cy="171.5" fill="#ADD1B2" rx="11" ry="11" style="stroke:#181818;stroke-width:1.0;"/><path d="M353.6875,167.3281 Q352.9375,167.3281 352.375,167.625 Q351.8125,167.9063 351.4219,168.4375 Q351.0313,168.9688 350.8281,169.75 Q350.6406,170.5156 350.6406,171.4688 Q350.6406,172.4375 350.8125,173.2031 Q351,173.9531 351.3594,174.4688 Q351.7344,174.9844 352.3125,175.2656 Q352.8906,175.5313 353.6875,175.5313 Q354.4219,175.5313 355.1563,175.3594 Q355.9063,175.1875 356.7813,174.8906 L356.7813,177.0469 Q356.375,177.2031 355.9844,177.3281 Q355.5938,177.4375 355.1875,177.5156 Q354.7813,177.5938 354.3594,177.625 Q353.9375,177.6719 353.4375,177.6719 Q352.0313,177.6719 351,177.2188 Q349.9844,176.7656 349.3125,175.9531 Q348.6406,175.1406 348.3125,174 Q347.9844,172.8438 347.9844,171.4531 Q347.9844,170.0781 348.3594,168.9219 Q348.7344,167.7656 349.4531,166.9375 Q350.1719,166.1094 351.2344,165.6563 Q352.2969,165.1875 353.6875,165.1875 Q354.5938,165.1875 355.5,165.4219 Q356.4063,165.6406 357.2344,166.0469 L356.4063,168.1406 Q355.7188,167.8125 355.0313,167.5781 Q354.3438,167.3281 353.6875,167.3281 Z " fill="#000000"/><text fill="#000000" font-family="sans-serif" font-size="14" lengthAdjust="spacing" textLength="40" x="374.25" y="176.3467">Player</text><line style="stroke:#181818;stroke-width:0.5;" x1="213" x2="543" y1="187.5" y2="187.5"/><line style="stroke:#181818;stroke-width:0.5;" x1="213" x2="543" y1="195.5" y2="195.5"/><ellipse cx="223" cy="209.1484" fill="#84BE84" rx="3" ry="3" style="stroke:#038048;stroke-width:1.0;"/><text fill="#000000" font-family="sans-serif" font-size="14" lengthAdjust="spacing" text-decoration="underline" textLength="162" x="232" y="212.4951">setName(val:string) : void</text><ellipse cx="223" cy="225.4453" fill="#84BE84" rx="3" ry="3" style="stroke:#038048;stroke-width:1.0;"/><text fill="#000000" font-family="sans-serif" font-size="14" lengthAdjust="spacing" textLength="306" x="232" y="228.792">setPlayerMovement(val:PlayerMovement) : void</text><ellipse cx="223" cy="241.7422" fill="#84BE84" rx="3" ry="3" style="stroke:#038048;stroke-width:1.0;"/><text fill="#000000" font-family="sans-serif" font-size="14" lengthAdjust="spacing" text-decoration="underline" textLength="114" x="232" y="245.0889">getName() : string</text><ellipse cx="223" cy="258.0391" fill="#84BE84" rx="3" ry="3" style="stroke:#038048;stroke-width:1.0;"/><text fill="#000000" font-family="sans-serif" font-size="14" lengthAdjust="spacing" text-decoration="underline" textLength="100" x="232" y="261.3857">getMoney() : int</text><ellipse cx="223" cy="274.3359" fill="#84BE84" rx="3" ry="3" style="stroke:#038048;stroke-width:1.0;"/><text fill="#000000" font-family="sans-serif" font-size="14" lengthAdjust="spacing" text-decoration="underline" textLength="104" x="232" y="277.6826">getScore() : float</text><ellipse cx="223" cy="290.6328" fill="#84BE84" rx="3" ry="3" style="stroke:#038048;stroke-width:1.0;"/><text fill="#000000" font-family="sans-serif" font-size="14" lengthAdjust="spacing" text-decoration="underline" textLength="206" x="232" y="293.9795">UpdateMoney(amount:int) : void</text><ellipse cx="223" cy="306.9297" fill="#84BE84" rx="3" ry="3" style="stroke:#038048;stroke-width:1.0;"/><text fill="#000000" font-family="sans-serif" font-size="14" lengthAdjust="spacing" text-decoration="underline" textLength="210" x="232" y="310.2764">UpdateScore(amount:float) : void</text><text fill="#000000" font-family="sans-serif" font-size="14" lengthAdjust="spacing" textLength="77" x="232" y="326.5732">Start() : void</text><text fill="#000000" font-family="sans-serif" font-size="14" lengthAdjust="spacing" textLength="93" x="232" y="342.8701">Update() : void</text><text fill="#000000" font-family="sans-serif" font-size="14" lengthAdjust="spacing" textLength="120" x="232" y="359.167">checkDeath() : void</text></g><!--class PlayerMovement--><g id="elem_PlayerMovement"><rect codeLine="20" fill="#F1F1F1" height="145.7813" id="PlayerMovement" rx="2.5" ry="2.5" style="stroke:#181818;stroke-width:0.5;" width="188" x="579" y="188"/><ellipse cx="615.15" cy="204" fill="#ADD1B2" rx="11" ry="11" style="stroke:#181818;stroke-width:1.0;"/><path d="M615.0875,199.8281 Q614.3375,199.8281 613.775,200.125 Q613.2125,200.4063 612.8219,200.9375 Q612.4313,201.4688 612.2281,202.25 Q612.0406,203.0156 612.0406,203.9688 Q612.0406,204.9375 612.2125,205.7031 Q612.4,206.4531 612.7594,206.9688 Q613.1344,207.4844 613.7125,207.7656 Q614.2906,208.0313 615.0875,208.0313 Q615.8219,208.0313 616.5563,207.8594 Q617.3063,207.6875 618.1813,207.3906 L618.1813,209.5469 Q617.775,209.7031 617.3844,209.8281 Q616.9938,209.9375 616.5875,210.0156 Q616.1813,210.0938 615.7594,210.125 Q615.3375,210.1719 614.8375,210.1719 Q613.4313,210.1719 612.4,209.7188 Q611.3844,209.2656 610.7125,208.4531 Q610.0406,207.6406 609.7125,206.5 Q609.3844,205.3438 609.3844,203.9531 Q609.3844,202.5781 609.7594,201.4219 Q610.1344,200.2656 610.8531,199.4375 Q611.5719,198.6094 612.6344,198.1563 Q613.6969,197.6875 615.0875,197.6875 Q615.9938,197.6875 616.9,197.9219 Q617.8063,198.1406 618.6344,198.5469 L617.8063,200.6406 Q617.1188,200.3125 616.4313,200.0781 Q615.7438,199.8281 615.0875,199.8281 Z " fill="#000000"/><text fill="#000000" font-family="sans-serif" font-size="14" lengthAdjust="spacing" textLength="109" x="633.85" y="208.8467">PlayerMovement</text><line style="stroke:#181818;stroke-width:0.5;" x1="580" x2="766" y1="220" y2="220"/><ellipse cx="590" cy="233.6484" fill="none" rx="3" ry="3" style="stroke:#038048;stroke-width:1.0;"/><text fill="#000000" font-family="sans-serif" font-size="14" lengthAdjust="spacing" textLength="162" x="599" y="236.9951">jumpSpeed : float = 10.0f</text><line style="stroke:#181818;stroke-width:0.5;" x1="580" x2="766" y1="244.2969" y2="244.2969"/><ellipse cx="590" cy="257.9453" fill="#84BE84" rx="3" ry="3" style="stroke:#038048;stroke-width:1.0;"/><text fill="#000000" font-family="sans-serif" font-size="14" lengthAdjust="spacing" textLength="156" x="599" y="261.292">setSpeed(val:float) : void</text><ellipse cx="590" cy="274.2422" fill="#84BE84" rx="3" ry="3" style="stroke:#038048;stroke-width:1.0;"/><text fill="#000000" font-family="sans-serif" font-size="14" lengthAdjust="spacing" textLength="108" x="599" y="277.5889">getSpeed() : float</text><ellipse cx="590" cy="290.5391" fill="#84BE84" rx="3" ry="3" style="stroke:#038048;stroke-width:1.0;"/><text fill="#000000" font-family="sans-serif" font-size="14" lengthAdjust="spacing" textLength="109" x="599" y="293.8857">slowdown() : void</text><text fill="#000000" font-family="sans-serif" font-size="14" lengthAdjust="spacing" textLength="77" x="599" y="310.1826">Start() : void</text><text fill="#000000" font-family="sans-serif" font-size="14" lengthAdjust="spacing" textLength="93" x="599" y="326.4795">Update() : void</text></g><!--class GameManager--><g id="elem_GameManager"><rect codeLine="29" fill="#F1F1F1" height="292.4531" id="GameManager" rx="2.5" ry="2.5" style="stroke:#181818;stroke-width:0.5;" width="236" x="802" y="115"/><ellipse cx="869.25" cy="131" fill="#ADD1B2" rx="11" ry="11" style="stroke:#181818;stroke-width:1.0;"/><path d="M869.1875,126.8281 Q868.4375,126.8281 867.875,127.125 Q867.3125,127.4063 866.9219,127.9375 Q866.5313,128.4688 866.3281,129.25 Q866.1406,130.0156 866.1406,130.9688 Q866.1406,131.9375 866.3125,132.7031 Q866.5,133.4531 866.8594,133.9688 Q867.2344,134.4844 867.8125,134.7656 Q868.3906,135.0313 869.1875,135.0313 Q869.9219,135.0313 870.6563,134.8594 Q871.4063,134.6875 872.2813,134.3906 L872.2813,136.5469 Q871.875,136.7031 871.4844,136.8281 Q871.0938,136.9375 870.6875,137.0156 Q870.2813,137.0938 869.8594,137.125 Q869.4375,137.1719 868.9375,137.1719 Q867.5313,137.1719 866.5,136.7188 Q865.4844,136.2656 864.8125,135.4531 Q864.1406,134.6406 863.8125,133.5 Q863.4844,132.3438 863.4844,130.9531 Q863.4844,129.5781 863.8594,128.4219 Q864.2344,127.2656 864.9531,126.4375 Q865.6719,125.6094 866.7344,125.1563 Q867.7969,124.6875 869.1875,124.6875 Q870.0938,124.6875 871,124.9219 Q871.9063,125.1406 872.7344,125.5469 L871.9063,127.6406 Q871.2188,127.3125 870.5313,127.0781 Q869.8438,126.8281 869.1875,126.8281 Z " fill="#000000"/><text fill="#000000" font-family="sans-serif" font-size="14" lengthAdjust="spacing" textLength="93" x="889.75" y="135.8467">GameManager</text><line style="stroke:#181818;stroke-width:0.5;" x1="803" x2="1037" y1="147" y2="147"/><line style="stroke:#181818;stroke-width:0.5;" x1="803" x2="1037" y1="155" y2="155"/><ellipse cx="813" cy="168.6484" fill="#84BE84" rx="3" ry="3" style="stroke:#038048;stroke-width:1.0;"/><text fill="#000000" font-family="sans-serif" font-size="14" lengthAdjust="spacing" textLength="144" x="822" y="171.9951">setPlayerName() : void</text><ellipse cx="813" cy="184.9453" fill="#84BE84" rx="3" ry="3" style="stroke:#038048;stroke-width:1.0;"/><text fill="#000000" font-family="sans-serif" font-size="14" lengthAdjust="spacing" textLength="96" x="822" y="188.292">setSong() : void</text><ellipse cx="813" cy="201.2422" fill="#84BE84" rx="3" ry="3" style="stroke:#038048;stroke-width:1.0;"/><text fill="#000000" font-family="sans-serif" font-size="14" lengthAdjust="spacing" textLength="92" x="822" y="204.5889">setSkin() : void</text><ellipse cx="813" cy="217.5391" fill="#84BE84" rx="3" ry="3" style="stroke:#038048;stroke-width:1.0;"/><text fill="#000000" font-family="sans-serif" font-size="14" lengthAdjust="spacing" textLength="156" x="822" y="220.8857">setRunningSpeed() : void</text><ellipse cx="813" cy="233.8359" fill="#84BE84" rx="3" ry="3" style="stroke:#038048;stroke-width:1.0;"/><text fill="#000000" font-family="sans-serif" font-size="14" lengthAdjust="spacing" textLength="185" x="822" y="237.1826">setGameOver(val:bool) : void</text><ellipse cx="813" cy="250.1328" fill="#84BE84" rx="3" ry="3" style="stroke:#038048;stroke-width:1.0;"/><text fill="#000000" font-family="sans-serif" font-size="14" lengthAdjust="spacing" textLength="206" x="822" y="253.4795">UpdateMoney(amount:int) : void</text><ellipse cx="813" cy="266.4297" fill="#84BE84" rx="3" ry="3" style="stroke:#038048;stroke-width:1.0;"/><text fill="#000000" font-family="sans-serif" font-size="14" lengthAdjust="spacing" textLength="210" x="822" y="269.7764">UpdateScore(amount:float) : void</text><ellipse cx="813" cy="282.7266" fill="#84BE84" rx="3" ry="3" style="stroke:#038048;stroke-width:1.0;"/><text fill="#000000" font-family="sans-serif" font-size="14" lengthAdjust="spacing" textLength="95" x="822" y="286.0732">BuyLife() : void</text><text fill="#000000" font-family="sans-serif" font-size="14" lengthAdjust="spacing" textLength="77" x="822" y="302.3701">Start() : void</text><text fill="#000000" font-family="sans-serif" font-size="14" lengthAdjust="spacing" textLength="122" x="822" y="318.667">PauseGame() : void</text><text fill="#000000" font-family="sans-serif" font-size="14" lengthAdjust="spacing" textLength="136" x="822" y="334.9639">ResumeGame() : void</text><text fill="#000000" font-family="sans-serif" font-size="14" lengthAdjust="spacing" textLength="93" x="822" y="351.2607">Update() : void</text><text fill="#000000" font-family="sans-serif" font-size="14" lengthAdjust="spacing" textLength="127" x="822" y="367.5576">FixedUpdate() : void</text><ellipse cx="813" cy="380.5078" fill="#84BE84" rx="3" ry="3" style="stroke:#038048;stroke-width:1.0;"/><text fill="#000000" font-family="sans-serif" font-size="14" lengthAdjust="spacing" textLength="115" x="822" y="383.8545">StartGame() : void</text><ellipse cx="813" cy="396.8047" fill="#84BE84" rx="3" ry="3" style="stroke:#038048;stroke-width:1.0;"/><text fill="#000000" font-family="sans-serif" font-size="14" lengthAdjust="spacing" textLength="92" x="822" y="400.1514">Restart() : void</text></g><!--class Text--><g id="elem_Text"><rect fill="#F1F1F1" height="48" id="Text" rx="2.5" ry="2.5" style="stroke:#181818;stroke-width:0.5;" width="59" x="890.5" y="467"/><ellipse cx="905.5" cy="483" fill="#ADD1B2" rx="11" ry="11" style="stroke:#181818;stroke-width:1.0;"/><path d="M905.4375,478.8281 Q904.6875,478.8281 904.125,479.125 Q903.5625,479.4063 903.1719,479.9375 Q902.7813,480.4688 902.5781,481.25 Q902.3906,482.0156 902.3906,482.9688 Q902.3906,483.9375 902.5625,484.7031 Q902.75,485.4531 903.1094,485.9688 Q903.4844,486.4844 904.0625,486.7656 Q904.6406,487.0313 905.4375,487.0313 Q906.1719,487.0313 906.9063,486.8594 Q907.6563,486.6875 908.5313,486.3906 L908.5313,488.5469 Q908.125,488.7031 907.7344,488.8281 Q907.3438,488.9375 906.9375,489.0156 Q906.5313,489.0938 906.1094,489.125 Q905.6875,489.1719 905.1875,489.1719 Q903.7813,489.1719 902.75,488.7188 Q901.7344,488.2656 901.0625,487.4531 Q900.3906,486.6406 900.0625,485.5 Q899.7344,484.3438 899.7344,482.9531 Q899.7344,481.5781 900.1094,480.4219 Q900.4844,479.2656 901.2031,478.4375 Q901.9219,477.6094 902.9844,477.1563 Q904.0469,476.6875 905.4375,476.6875 Q906.3438,476.6875 907.25,476.9219 Q908.1563,477.1406 908.9844,477.5469 L908.1563,479.6406 Q907.4688,479.3125 906.7813,479.0781 Q906.0938,478.8281 905.4375,478.8281 Z " fill="#000000"/><text fill="#000000" font-family="sans-serif" font-size="14" lengthAdjust="spacing" textLength="27" x="919.5" y="487.8467">Text</text><line style="stroke:#181818;stroke-width:0.5;" x1="891.5" x2="948.5" y1="499" y2="499"/><line style="stroke:#181818;stroke-width:0.5;" x1="891.5" x2="948.5" y1="507" y2="507"/></g><!--class Coin--><g id="elem_Coin"><rect codeLine="51" fill="#F1F1F1" height="96.8906" id="Coin" rx="2.5" ry="2.5" style="stroke:#181818;stroke-width:0.5;" width="170" x="1091" y="212.5"/><ellipse cx="1157.75" cy="228.5" fill="#ADD1B2" rx="11" ry="11" style="stroke:#181818;stroke-width:1.0;"/><path d="M1157.6875,224.3281 Q1156.9375,224.3281 1156.375,224.625 Q1155.8125,224.9063 1155.4219,225.4375 Q1155.0313,225.9688 1154.8281,226.75 Q1154.6406,227.5156 1154.6406,228.4688 Q1154.6406,229.4375 1154.8125,230.2031 Q1155,230.9531 1155.3594,231.4688 Q1155.7344,231.9844 1156.3125,232.2656 Q1156.8906,232.5313 1157.6875,232.5313 Q1158.4219,232.5313 1159.1563,232.3594 Q1159.9063,232.1875 1160.7813,231.8906 L1160.7813,234.0469 Q1160.375,234.2031 1159.9844,234.3281 Q1159.5938,234.4375 1159.1875,234.5156 Q1158.7813,234.5938 1158.3594,234.625 Q1157.9375,234.6719 1157.4375,234.6719 Q1156.0313,234.6719 1155,234.2188 Q1153.9844,233.7656 1153.3125,232.9531 Q1152.6406,232.1406 1152.3125,231 Q1151.9844,229.8438 1151.9844,228.4531 Q1151.9844,227.0781 1152.3594,225.9219 Q1152.7344,224.7656 1153.4531,223.9375 Q1154.1719,223.1094 1155.2344,222.6563 Q1156.2969,222.1875 1157.6875,222.1875 Q1158.5938,222.1875 1159.5,222.4219 Q1160.4063,222.6406 1161.2344,223.0469 L1160.4063,225.1406 Q1159.7188,224.8125 1159.0313,224.5781 Q1158.3438,224.3281 1157.6875,224.3281 Z " fill="#000000"/><text fill="#000000" font-family="sans-serif" font-size="14" lengthAdjust="spacing" textLength="28" x="1178.25" y="233.3467">Coin</text><line style="stroke:#181818;stroke-width:0.5;" x1="1092" x2="1260" y1="244.5" y2="244.5"/><ellipse cx="1102" cy="258.1484" fill="none" rx="3" ry="3" style="stroke:#038048;stroke-width:1.0;"/><text fill="#000000" font-family="sans-serif" font-size="14" lengthAdjust="spacing" textLength="144" x="1111" y="261.4951">turnSpeed : float = 90f</text><line style="stroke:#181818;stroke-width:0.5;" x1="1092" x2="1260" y1="268.7969" y2="268.7969"/><text fill="#000000" font-family="sans-serif" font-size="14" lengthAdjust="spacing" textLength="77" x="1097" y="285.792">Start() : void</text><text fill="#000000" font-family="sans-serif" font-size="14" lengthAdjust="spacing" textLength="93" x="1097" y="302.0889">Update() : void</text></g><!--class SpawnTile--><g id="elem_SpawnTile"><rect codeLine="57" fill="#F1F1F1" height="162.0781" id="SpawnTile" rx="2.5" ry="2.5" style="stroke:#181818;stroke-width:0.5;" width="263" x="1296.5" y="180"/><ellipse cx="1392.25" cy="196" fill="#ADD1B2" rx="11" ry="11" style="stroke:#181818;stroke-width:1.0;"/><path d="M1392.1875,191.8281 Q1391.4375,191.8281 1390.875,192.125 Q1390.3125,192.4063 1389.9219,192.9375 Q1389.5313,193.4688 1389.3281,194.25 Q1389.1406,195.0156 1389.1406,195.9688 Q1389.1406,196.9375 1389.3125,197.7031 Q1389.5,198.4531 1389.8594,198.9688 Q1390.2344,199.4844 1390.8125,199.7656 Q1391.3906,200.0313 1392.1875,200.0313 Q1392.9219,200.0313 1393.6563,199.8594 Q1394.4063,199.6875 1395.2813,199.3906 L1395.2813,201.5469 Q1394.875,201.7031 1394.4844,201.8281 Q1394.0938,201.9375 1393.6875,202.0156 Q1393.2813,202.0938 1392.8594,202.125 Q1392.4375,202.1719 1391.9375,202.1719 Q1390.5313,202.1719 1389.5,201.7188 Q1388.4844,201.2656 1387.8125,200.4531 Q1387.1406,199.6406 1386.8125,198.5 Q1386.4844,197.3438 1386.4844,195.9531 Q1386.4844,194.5781 1386.8594,193.4219 Q1387.2344,192.2656 1387.9531,191.4375 Q1388.6719,190.6094 1389.7344,190.1563 Q1390.7969,189.6875 1392.1875,189.6875 Q1393.0938,189.6875 1394,189.9219 Q1394.9063,190.1406 1395.7344,190.5469 L1394.9063,192.6406 Q1394.2188,192.3125 1393.5313,192.0781 Q1392.8438,191.8281 1392.1875,191.8281 Z " fill="#000000"/><text fill="#000000" font-family="sans-serif" font-size="14" lengthAdjust="spacing" textLength="63" x="1412.75" y="200.8467">SpawnTile</text><line style="stroke:#181818;stroke-width:0.5;" x1="1297.5" x2="1558.5" y1="212" y2="212"/><ellipse cx="1307.5" cy="225.6484" fill="none" rx="3" ry="3" style="stroke:#038048;stroke-width:1.0;"/><text fill="#000000" font-family="sans-serif" font-size="14" lengthAdjust="spacing" textLength="237" x="1316.5" y="228.9951">maxDistanceFromPlayer : float = 0.5f</text><ellipse cx="1307.5" cy="241.9453" fill="none" rx="3" ry="3" style="stroke:#038048;stroke-width:1.0;"/><text fill="#000000" font-family="sans-serif" font-size="14" lengthAdjust="spacing" textLength="219" x="1316.5" y="245.292">distanceBetweenTiles : float = 5.0f</text><ellipse cx="1307.5" cy="258.2422" fill="none" rx="3" ry="3" style="stroke:#038048;stroke-width:1.0;"/><text fill="#000000" font-family="sans-serif" font-size="14" lengthAdjust="spacing" textLength="167" x="1316.5" y="261.5889">randomValue : float = 0.7f</text><ellipse cx="1307.5" cy="274.5391" fill="none" rx="3" ry="3" style="stroke:#038048;stroke-width:1.0;"/><text fill="#000000" font-family="sans-serif" font-size="14" lengthAdjust="spacing" textLength="202" x="1316.5" y="277.8857">obstacleSpawnRate : float = 0.1f</text><line style="stroke:#181818;stroke-width:0.5;" x1="1297.5" x2="1558.5" y1="285.1875" y2="285.1875"/><ellipse cx="1307.5" cy="298.8359" fill="#84BE84" rx="3" ry="3" style="stroke:#038048;stroke-width:1.0;"/><text fill="#000000" font-family="sans-serif" font-size="14" lengthAdjust="spacing" textLength="222" x="1316.5" y="302.1826">changePlayer(p:GameObject) : void</text><text fill="#000000" font-family="sans-serif" font-size="14" lengthAdjust="spacing" textLength="77" x="1316.5" y="318.4795">Start() : void</text><text fill="#000000" font-family="sans-serif" font-size="14" lengthAdjust="spacing" textLength="93" x="1316.5" y="334.7764">Update() : void</text></g><!--class GameObject--><g id="elem_GameObject"><rect fill="#F1F1F1" height="48" id="GameObject" rx="2.5" ry="2.5" style="stroke:#181818;stroke-width:0.5;" width="111" x="1372.5" y="467"/><ellipse cx="1387.5" cy="483" fill="#ADD1B2" rx="11" ry="11" style="stroke:#181818;stroke-width:1.0;"/><path d="M1387.4375,478.8281 Q1386.6875,478.8281 1386.125,479.125 Q1385.5625,479.4063 1385.1719,479.9375 Q1384.7813,480.4688 1384.5781,481.25 Q1384.3906,482.0156 1384.3906,482.9688 Q1384.3906,483.9375 1384.5625,484.7031 Q1384.75,485.4531 1385.1094,485.9688 Q1385.4844,486.4844 1386.0625,486.7656 Q1386.6406,487.0313 1387.4375,487.0313 Q1388.1719,487.0313 1388.9063,486.8594 Q1389.6563,486.6875 1390.5313,486.3906 L1390.5313,488.5469 Q1390.125,488.7031 1389.7344,488.8281 Q1389.3438,488.9375 1388.9375,489.0156 Q1388.5313,489.0938 1388.1094,489.125 Q1387.6875,489.1719 1387.1875,489.1719 Q1385.7813,489.1719 1384.75,488.7188 Q1383.7344,488.2656 1383.0625,487.4531 Q1382.3906,486.6406 1382.0625,485.5 Q1381.7344,484.3438 1381.7344,482.9531 Q1381.7344,481.5781 1382.1094,480.4219 Q1382.4844,479.2656 1383.2031,478.4375 Q1383.9219,477.6094 1384.9844,477.1563 Q1386.0469,476.6875 1387.4375,476.6875 Q1388.3438,476.6875 1389.25,476.9219 Q1390.1563,477.1406 1390.9844,477.5469 L1390.1563,479.6406 Q1389.4688,479.3125 1388.7813,479.0781 Q1388.0938,478.8281 1387.4375,478.8281 Z " fill="#000000"/><text fill="#000000" font-family="sans-serif" font-size="14" lengthAdjust="spacing" textLength="79" x="1401.5" y="487.8467">GameObject</text><line style="stroke:#181818;stroke-width:0.5;" x1="1373.5" x2="1482.5" y1="499" y2="499"/><line style="stroke:#181818;stroke-width:0.5;" x1="1373.5" x2="1482.5" y1="507" y2="507"/></g><!--class Obstacle--><g id="elem_Obstacle"><rect codeLine="75" fill="#F1F1F1" height="80.5938" id="Obstacle" rx="2.5" ry="2.5" style="stroke:#181818;stroke-width:0.5;" width="105" x="1594.5" y="220.5"/><ellipse cx="1618.05" cy="236.5" fill="#ADD1B2" rx="11" ry="11" style="stroke:#181818;stroke-width:1.0;"/><path d="M1617.9875,232.3281 Q1617.2375,232.3281 1616.675,232.625 Q1616.1125,232.9063 1615.7219,233.4375 Q1615.3313,233.9688 1615.1281,234.75 Q1614.9406,235.5156 1614.9406,236.4688 Q1614.9406,237.4375 1615.1125,238.2031 Q1615.3,238.9531 1615.6594,239.4688 Q1616.0344,239.9844 1616.6125,240.2656 Q1617.1906,240.5313 1617.9875,240.5313 Q1618.7219,240.5313 1619.4563,240.3594 Q1620.2063,240.1875 1621.0813,239.8906 L1621.0813,242.0469 Q1620.675,242.2031 1620.2844,242.3281 Q1619.8938,242.4375 1619.4875,242.5156 Q1619.0813,242.5938 1618.6594,242.625 Q1618.2375,242.6719 1617.7375,242.6719 Q1616.3313,242.6719 1615.3,242.2188 Q1614.2844,241.7656 1613.6125,240.9531 Q1612.9406,240.1406 1612.6125,239 Q1612.2844,237.8438 1612.2844,236.4531 Q1612.2844,235.0781 1612.6594,233.9219 Q1613.0344,232.7656 1613.7531,231.9375 Q1614.4719,231.1094 1615.5344,230.6563 Q1616.5969,230.1875 1617.9875,230.1875 Q1618.8938,230.1875 1619.8,230.4219 Q1620.7063,230.6406 1621.5344,231.0469 L1620.7063,233.1406 Q1620.0188,232.8125 1619.3313,232.5781 Q1618.6438,232.3281 1617.9875,232.3281 Z " fill="#000000"/><text fill="#000000" font-family="sans-serif" font-size="14" lengthAdjust="spacing" textLength="54" x="1633.95" y="241.3467">Obstacle</text><line style="stroke:#181818;stroke-width:0.5;" x1="1595.5" x2="1698.5" y1="252.5" y2="252.5"/><line style="stroke:#181818;stroke-width:0.5;" x1="1595.5" x2="1698.5" y1="260.5" y2="260.5"/><text fill="#000000" font-family="sans-serif" font-size="14" lengthAdjust="spacing" textLength="77" x="1600.5" y="277.4951">Start() : void</text><text fill="#000000" font-family="sans-serif" font-size="14" lengthAdjust="spacing" textLength="93" x="1600.5" y="293.792">Update() : void</text></g><!--class SlowDownPowerUp--><g id="elem_SlowDownPowerUp"><rect codeLine="80" fill="#F1F1F1" height="80.5938" id="SlowDownPowerUp" rx="2.5" ry="2.5" style="stroke:#181818;stroke-width:0.5;" width="155" x="1734.5" y="220.5"/><ellipse cx="1749.5" cy="236.5" fill="#ADD1B2" rx="11" ry="11" style="stroke:#181818;stroke-width:1.0;"/><path d="M1749.4375,232.3281 Q1748.6875,232.3281 1748.125,232.625 Q1747.5625,232.9063 1747.1719,233.4375 Q1746.7813,233.9688 1746.5781,234.75 Q1746.3906,235.5156 1746.3906,236.4688 Q1746.3906,237.4375 1746.5625,238.2031 Q1746.75,238.9531 1747.1094,239.4688 Q1747.4844,239.9844 1748.0625,240.2656 Q1748.6406,240.5313 1749.4375,240.5313 Q1750.1719,240.5313 1750.9063,240.3594 Q1751.6563,240.1875 1752.5313,239.8906 L1752.5313,242.0469 Q1752.125,242.2031 1751.7344,242.3281 Q1751.3438,242.4375 1750.9375,242.5156 Q1750.5313,242.5938 1750.1094,242.625 Q1749.6875,242.6719 1749.1875,242.6719 Q1747.7813,242.6719 1746.75,242.2188 Q1745.7344,241.7656 1745.0625,240.9531 Q1744.3906,240.1406 1744.0625,239 Q1743.7344,237.8438 1743.7344,236.4531 Q1743.7344,235.0781 1744.1094,233.9219 Q1744.4844,232.7656 1745.2031,231.9375 Q1745.9219,231.1094 1746.9844,230.6563 Q1748.0469,230.1875 1749.4375,230.1875 Q1750.3438,230.1875 1751.25,230.4219 Q1752.1563,230.6406 1752.9844,231.0469 L1752.1563,233.1406 Q1751.4688,232.8125 1750.7813,232.5781 Q1750.0938,232.3281 1749.4375,232.3281 Z " fill="#000000"/><text fill="#000000" font-family="sans-serif" font-size="14" lengthAdjust="spacing" textLength="123" x="1763.5" y="241.3467">SlowDownPowerUp</text><line style="stroke:#181818;stroke-width:0.5;" x1="1735.5" x2="1888.5" y1="252.5" y2="252.5"/><line style="stroke:#181818;stroke-width:0.5;" x1="1735.5" x2="1888.5" y1="260.5" y2="260.5"/><text fill="#000000" font-family="sans-serif" font-size="14" lengthAdjust="spacing" textLength="77" x="1740.5" y="277.4951">Start() : void</text><text fill="#000000" font-family="sans-serif" font-size="14" lengthAdjust="spacing" textLength="93" x="1740.5" y="293.792">Update() : void</text></g><!--reverse link MonoBehaviour to ScorePowerUp--><g id="link_MonoBehaviour_ScorePowerUp"><path codeLine="6" d="M961.37,31.42 C770.94,31.56 322.64,40.09 194,115 C156.23,136.99 128.98,179.2 112.2,212.43 " fill="none" id="MonoBehaviour-backto-ScorePowerUp" style="stroke:#181818;stroke-width:1.0;"/><polygon fill="none" points="961.41,24.42,981.4,31.43,961.39,38.42,961.41,24.42" style="stroke:#181818;stroke-width:1.0;"/></g><!--reverse link MonoBehaviour to Player--><g id="link_MonoBehaviour_Player"><path codeLine="19" d="M961.14,33.9 C860.72,38.96 692.41,56.41 561,115 C537.31,125.56 514.02,139.91 492.42,155.48 " fill="none" id="MonoBehaviour-backto-Player" style="stroke:#181818;stroke-width:1.0;"/><polygon fill="none" points="960.9,26.9,981.19,33.01,961.52,40.89,960.9,26.9" style="stroke:#181818;stroke-width:1.0;"/></g><!--reverse link MonoBehaviour to PlayerMovement--><g id="link_MonoBehaviour_PlayerMovement"><path codeLine="28" d="M961.71,45.31 C907.02,56.93 836.89,77.95 784,115 C756.86,134.01 733.39,161.66 715.1,187.73 " fill="none" id="MonoBehaviour-backto-PlayerMovement" style="stroke:#181818;stroke-width:1.0;"/><polygon fill="none" points="960.48,38.42,981.47,41.38,963.22,52.15,960.48,38.42" style="stroke:#181818;stroke-width:1.0;"/></g><!--reverse link MonoBehaviour to GameManager--><g id="link_MonoBehaviour_GameManager"><path codeLine="46" d="M1025.08,72.82 C1018.1,85.25 1010,99.69 1001.44,114.94 " fill="none" id="MonoBehaviour-backto-GameManager" style="stroke:#181818;stroke-width:1.0;"/><polygon fill="none" points="1019.13,69.13,1035.02,55.12,1031.34,75.98,1019.13,69.13" style="stroke:#181818;stroke-width:1.0;"/></g><!--link GameManager to Text--><g id="link_GameManager_Text"><path codeLine="47" d="M894.63,407.04 C895.84,427.69 898.27,446.87 901.94,461.57 " fill="none" id="GameManager-to-Text" style="stroke:#181818;stroke-width:1.0;"/><polygon fill="#181818" points="903.34,466.78,904.8627,457.0496,902.0401,461.9519,897.1378,459.1294,903.34,466.78" style="stroke:#181818;stroke-width:1.0;"/><text fill="#000000" font-family="sans-serif" font-size="13" lengthAdjust="spacing" textLength="66" x="825.2354" y="456.1313">moneyText</text></g><!--link GameManager to Text--><g id="link_GameManager_Text"><path codeLine="48" d="M920,407.04 C920,427.69 920,446.87 920,461.57 " fill="none" id="GameManager-to-Text-1" style="stroke:#181818;stroke-width:1.0;"/><polygon fill="#181818" points="920,466.78,924,457.78,920,461.78,916,457.78,920,466.78" style="stroke:#181818;stroke-width:1.0;"/><text fill="#000000" font-family="sans-serif" font-size="13" lengthAdjust="spacing" textLength="57" x="926.9469" y="456.1313">scoreText</text></g><!--link GameManager to Text--><g id="link_GameManager_Text"><path codeLine="49" d="M945.37,407.04 C944.16,427.69 941.73,446.87 938.06,461.57 " fill="none" id="GameManager-to-Text-2" style="stroke:#181818;stroke-width:1.0;"/><polygon fill="#181818" points="936.66,466.78,942.8622,459.1294,937.9599,461.9519,935.1373,457.0496,936.66,466.78" style="stroke:#181818;stroke-width:1.0;"/><text fill="#000000" font-family="sans-serif" font-size="13" lengthAdjust="spacing" textLength="96" x="957.2704" y="473.5386">playerNameText</text></g><!--link GameManager to GameManager--><g id="link_GameManager_GameManager"><path codeLine="50" d="M1038.04,220.57 C1058.66,225.96 1073,239.44 1073,261 C1073,280.71 1061.02,293.66 1043.21,299.86 " fill="none" id="GameManager-to-GameManager" style="stroke:#181818;stroke-width:1.0;"/><polygon fill="#181818" points="1038.04,301.43,1047.8149,302.6351,1042.8232,299.9736,1045.4847,294.982,1038.04,301.43" style="stroke:#181818;stroke-width:1.0;"/><text fill="#000000" font-family="sans-serif" font-size="13" lengthAdjust="spacing" textLength="49" x="1034.2781" y="304.1">instance</text></g><!--reverse link MonoBehaviour to Coin--><g id="link_MonoBehaviour_Coin"><path codeLine="56" d="M1070.91,72.81 C1092.87,111.92 1126.02,170.97 1149.19,212.25 " fill="none" id="MonoBehaviour-backto-Coin" style="stroke:#181818;stroke-width:1.0;"/><polygon fill="none" points="1064.66,75.98,1060.98,55.12,1076.87,69.13,1064.66,75.98" style="stroke:#181818;stroke-width:1.0;"/></g><!--reverse link MonoBehaviour to SpawnTile--><g id="link_MonoBehaviour_SpawnTile"><path codeLine="66" d="M1133.81,53.55 C1178.82,67.13 1233.67,87.37 1278,115 C1306.43,132.72 1333.9,156.57 1357.39,179.8 " fill="none" id="MonoBehaviour-backto-SpawnTile" style="stroke:#181818;stroke-width:1.0;"/><polygon fill="none" points="1131.79,60.26,1114.54,47.96,1135.69,46.81,1131.79,60.26" style="stroke:#181818;stroke-width:1.0;"/></g><!--link SpawnTile to GameObject--><g id="link_SpawnTile_GameObject"><path codeLine="67" d="M1340.2,342.06 C1330.44,385.59 1339.99,436.38 1368.85,465.7 " fill="none" id="SpawnTile-to-GameObject" style="stroke:#181818;stroke-width:1.0;"/><polygon fill="#181818" points="1372.47,469.16,1368.7311,460.0484,1368.8568,465.7039,1363.2013,465.8296,1372.47,469.16" style="stroke:#181818;stroke-width:1.0;"/><text fill="#000000" font-family="sans-serif" font-size="13" lengthAdjust="spacing" textLength="72" x="1292.6041" y="463.7112">tileToSpawn</text></g><!--link SpawnTile to GameObject--><g id="link_SpawnTile_GameObject"><path codeLine="68" d="M1365.39,342.06 C1358.66,384.13 1364.8,432.99 1383.8,462.69 " fill="none" id="SpawnTile-to-GameObject-1" style="stroke:#181818;stroke-width:1.0;"/><polygon fill="#181818" points="1386.7,466.93,1384.8974,457.2475,1383.8674,462.8098,1378.3051,461.7797,1386.7,466.93" style="stroke:#181818;stroke-width:1.0;"/><text fill="#000000" font-family="sans-serif" font-size="13" lengthAdjust="spacing" textLength="94" x="1388.1606" y="455.9241">referenceObject</text></g><!--link SpawnTile to GameObject--><g id="link_SpawnTile_GameObject"><path codeLine="69" d="M1390.58,342.06 C1386.59,383.79 1390.16,432.19 1401.31,461.95 " fill="none" id="SpawnTile-to-GameObject-2" style="stroke:#181818;stroke-width:1.0;"/><polygon fill="#181818" points="1403.32,466.93,1403.6393,457.0863,1401.4385,462.2975,1396.2273,460.0967,1403.32,466.93" style="stroke:#181818;stroke-width:1.0;"/><text fill="#000000" font-family="sans-serif" font-size="13" lengthAdjust="spacing" textLength="36" x="1327.841" y="463.7311">player</text></g><!--link SpawnTile to GameObject--><g id="link_SpawnTile_GameObject"><path codeLine="70" d="M1415.77,342.06 C1414.46,383.79 1415.63,432.19 1419.27,461.95 " fill="none" id="SpawnTile-to-GameObject-3" style="stroke:#181818;stroke-width:1.0;"/><polygon fill="#181818" points="1419.93,466.93,1422.7126,457.4824,1419.2729,461.9734,1414.782,458.5337,1419.93,466.93" style="stroke:#181818;stroke-width:1.0;"/><text fill="#000000" font-family="sans-serif" font-size="13" lengthAdjust="spacing" textLength="99" x="1430.5464" y="455.9241">groundToSpawn</text></g><!--link SpawnTile to GameObject--><g id="link_SpawnTile_GameObject"><path codeLine="71" d="M1440.95,342.06 C1442.33,383.79 1441.1,432.19 1437.24,461.95 " fill="none" id="SpawnTile-to-GameObject-4" style="stroke:#181818;stroke-width:1.0;"/><polygon fill="#181818" points="1436.54,466.93,1441.7591,458.5777,1437.2391,461.9791,1433.8377,457.4591,1436.54,466.93" style="stroke:#181818;stroke-width:1.0;"/><text fill="#000000" font-family="sans-serif" font-size="13" lengthAdjust="spacing" textLength="63" x="1491.595" y="456.3045">coinPrefab</text></g><!--link SpawnTile to GameObject--><g id="link_SpawnTile_GameObject"><path codeLine="72" d="M1466.14,342.06 C1470.21,383.79 1466.56,432.19 1455.21,461.95 " fill="none" id="SpawnTile-to-GameObject-5" style="stroke:#181818;stroke-width:1.0;"/><polygon fill="#181818" points="1453.16,466.93,1460.2781,460.1232,1455.0587,462.3045,1452.8773,457.0852,1453.16,466.93" style="stroke:#181818;stroke-width:1.0;"/><text fill="#000000" font-family="sans-serif" font-size="13" lengthAdjust="spacing" textLength="125" x="1475.6229" y="455.9241">PowerUpScorePrefab</text></g><!--link SpawnTile to GameObject--><g id="link_SpawnTile_GameObject"><path codeLine="73" d="M1491.33,342.06 C1498.14,384.13 1491.93,432.99 1472.7,462.69 " fill="none" id="SpawnTile-to-GameObject-6" style="stroke:#181818;stroke-width:1.0;"/><polygon fill="#181818" points="1469.77,466.93,1478.177,461.7995,1472.6123,462.8165,1471.5954,457.2518,1469.77,466.93" style="stroke:#181818;stroke-width:1.0;"/><text fill="#000000" font-family="sans-serif" font-size="13" lengthAdjust="spacing" textLength="101" x="1491.1074" y="475.1804">SlowDownPrefab</text></g><!--link SpawnTile to GameObject--><g id="link_SpawnTile_GameObject"><path codeLine="74" d="M1516.52,342.06 C1526.39,385.71 1516.68,436.66 1487.38,465.95 " fill="none" id="SpawnTile-to-GameObject-7" style="stroke:#181818;stroke-width:1.0;"/><polygon fill="#181818" points="1483.71,469.41,1493.0053,466.1545,1487.351,465.9832,1487.5223,460.3289,1483.71,469.41" style="stroke:#181818;stroke-width:1.0;"/><text fill="#000000" font-family="sans-serif" font-size="13" lengthAdjust="spacing" textLength="87" x="1491.6158" y="480.3594">obstaclePrefab</text></g><!--reverse link MonoBehaviour to Obstacle--><g id="link_MonoBehaviour_Obstacle"><path codeLine="79" d="M1134.91,35.98 C1266.57,43.58 1508.52,64.19 1577,115 C1611.12,140.32 1629.4,186.69 1638.62,220.19 " fill="none" id="MonoBehaviour-backto-Obstacle" style="stroke:#181818;stroke-width:1.0;"/><polygon fill="none" points="1134.35,42.96,1114.77,34.87,1135.12,28.98,1134.35,42.96" style="stroke:#181818;stroke-width:1.0;"/></g><!--reverse link MonoBehaviour to SlowDownPowerUp--><g id="link_MonoBehaviour_SlowDownPowerUp"><path codeLine="84" d="M1134.94,33.84 C1293.4,38.63 1621.69,55.63 1717,115 C1756.08,139.35 1782.38,186.38 1797.22,220.29 " fill="none" id="MonoBehaviour-backto-SlowDownPowerUp" style="stroke:#181818;stroke-width:1.0;"/><polygon fill="none" points="1134.45,40.83,1114.66,33.26,1134.85,26.83,1134.45,40.83" style="stroke:#181818;stroke-width:1.0;"/></g><!--SRC=[jLPTRzem57tdLrWyCKLKzA6QXhOzK5HUnee8tRjnBi5jOaUEau2w_lSvTZvmy0AjDXuGklVaVfnpx40YdAR89rp0YXSWdXBqEa3guo6P2UOd006Qebt4iKJVq9V9JcTzYOKSVLAPdDD0XvwI04jeOs-39MTy1dkSKvu9zFNtU6mr6X3TUnNX8uYcwsigiQJa3QKWV-8OHZcEfgaKb8LMEwy4c6UNF8SOcDHGEzHvf2aULiNBl2dkGAZvuQWXb4b7NY-ZyvgUBi8GOehWc6TCJkdV9p9eKx92wweM_WhQonZP0tcP0vRx2t8OiYmXQkOQGPwpEEdQu7PoKnb1ow3JcltpaJtDb0PqcKeZNWIyOAFtxjYpIpr-jTD2YRp438Sd3cjyqpZ0DfNFMUWAlr3c2AypnfHzsWtjT3d0Omv2ixFbFEf0hZB9LTxmq2mx_g0xk4Zd2cSfBCwMNqEQnOwuos4Fz021A-6PXWi7jQg-FOjJnXF51gVgZSVVqJ0kUTh0GGvH-NqEI4kE-W19etmVYZ8rAYCmjCOnbhhdbFtNEx9iKFNo4rom3OsWQHZZmvoQuHu4ZwlBisq-kRch3sPGuMOW2m1T9Zr1thL7M60MyFWNZZAmIdsk0NohIf48z3nhjO85kwrXP8zP26QcKJBLtjy-0v7_v80tP0nQMhHQKltQS1qqWfccNPY07GXGX9Xq7zIuf0yH2dKCWokw4gNcIhN6spvKzKeqhyUBQ5zTd7DrSLv6ri8vaCPXZnMWCjX7jQdBrBwj1xJ-KdnOUBlQ7m00]--></g></svg>