<?xml version="1.0" encoding="us-ascii" standalone="no"?><svg xmlns="http://www.w3.org/2000/svg" xmlns:xlink="http://www.w3.org/1999/xlink" contentStyleType="text/css" height="522px" preserveAspectRatio="none" style="width:306px;height:522px;background:#FFFFFF;" version="1.1" viewBox="0 0 306 522" width="306px" zoomAndPan="magnify"><defs/><g><!--class GameManager--><g id="elem_GameManager"><rect codeLine="1" fill="#F1F1F1" height="292.4531" id="GameManager" rx="2.5" ry="2.5" style="stroke:#181818;stroke-width:0.5;" width="236" x="7" y="115"/><ellipse cx="74.25" cy="131" fill="#ADD1B2" rx="11" ry="11" style="stroke:#181818;stroke-width:1.0;"/><path d="M74.1875,126.8281 Q73.4375,126.8281 72.875,127.125 Q72.3125,127.4063 71.9219,127.9375 Q71.5313,128.4688 71.3281,129.25 Q71.1406,130.0156 71.1406,130.9688 Q71.1406,131.9375 71.3125,132.7031 Q71.5,133.4531 71.8594,133.9688 Q72.2344,134.4844 72.8125,134.7656 Q73.3906,135.0313 74.1875,135.0313 Q74.9219,135.0313 75.6563,134.8594 Q76.4063,134.6875 77.2813,134.3906 L77.2813,136.5469 Q76.875,136.7031 76.4844,136.8281 Q76.0938,136.9375 75.6875,137.0156 Q75.2813,137.0938 74.8594,137.125 Q74.4375,137.1719 73.9375,137.1719 Q72.5313,137.1719 71.5,136.7188 Q70.4844,136.2656 69.8125,135.4531 Q69.1406,134.6406 68.8125,133.5 Q68.4844,132.3438 68.4844,130.9531 Q68.4844,129.5781 68.8594,128.4219 Q69.2344,127.2656 69.9531,126.4375 Q70.6719,125.6094 71.7344,125.1563 Q72.7969,124.6875 74.1875,124.6875 Q75.0938,124.6875 76,124.9219 Q76.9063,125.1406 77.7344,125.5469 L76.9063,127.6406 Q76.2188,127.3125 75.5313,127.0781 Q74.8438,126.8281 74.1875,126.8281 Z " fill="#000000"/><text fill="#000000" font-family="sans-serif" font-size="14" lengthAdjust="spacing" textLength="93" x="94.75" y="135.8467">GameManager</text><line style="stroke:#181818;stroke-width:0.5;" x1="8" x2="242" y1="147" y2="147"/><line style="stroke:#181818;stroke-width:0.5;" x1="8" x2="242" y1="155" y2="155"/><ellipse cx="18" cy="168.6484" fill="#84BE84" rx="3" ry="3" style="stroke:#038048;stroke-width:1.0;"/><text fill="#000000" font-family="sans-serif" font-size="14" lengthAdjust="spacing" textLength="144" x="27" y="171.9951">setPlayerName() : void</text><ellipse cx="18" cy="184.9453" fill="#84BE84" rx="3" ry="3" style="stroke:#038048;stroke-width:1.0;"/><text fill="#000000" font-family="sans-serif" font-size="14" lengthAdjust="spacing" textLength="96" x="27" y="188.292">setSong() : void</text><ellipse cx="18" cy="201.2422" fill="#84BE84" rx="3" ry="3" style="stroke:#038048;stroke-width:1.0;"/><text fill="#000000" font-family="sans-serif" font-size="14" lengthAdjust="spacing" textLength="92" x="27" y="204.5889">setSkin() : void</text><ellipse cx="18" cy="217.5391" fill="#84BE84" rx="3" ry="3" style="stroke:#038048;stroke-width:1.0;"/><text fill="#000000" font-family="sans-serif" font-size="14" lengthAdjust="spacing" textLength="156" x="27" y="220.8857">setRunningSpeed() : void</text><ellipse cx="18" cy="233.8359" fill="#84BE84" rx="3" ry="3" style="stroke:#038048;stroke-width:1.0;"/><text fill="#000000" font-family="sans-serif" font-size="14" lengthAdjust="spacing" textLength="185" x="27" y="237.1826">setGameOver(val:bool) : void</text><ellipse cx="18" cy="250.1328" fill="#84BE84" rx="3" ry="3" style="stroke:#038048;stroke-width:1.0;"/><text fill="#000000" font-family="sans-serif" font-size="14" lengthAdjust="spacing" textLength="206" x="27" y="253.4795">UpdateMoney(amount:int) : void</text><ellipse cx="18" cy="266.4297" fill="#84BE84" rx="3" ry="3" style="stroke:#038048;stroke-width:1.0;"/><text fill="#000000" font-family="sans-serif" font-size="14" lengthAdjust="spacing" textLength="210" x="27" y="269.7764">UpdateScore(amount:float) : void</text><ellipse cx="18" cy="282.7266" fill="#84BE84" rx="3" ry="3" style="stroke:#038048;stroke-width:1.0;"/><text fill="#000000" font-family="sans-serif" font-size="14" lengthAdjust="spacing" textLength="95" x="27" y="286.0732">BuyLife() : void</text><text fill="#000000" font-family="sans-serif" font-size="14" lengthAdjust="spacing" textLength="77" x="27" y="302.3701">Start() : void</text><text fill="#000000" font-family="sans-serif" font-size="14" lengthAdjust="spacing" textLength="122" x="27" y="318.667">PauseGame() : void</text><text fill="#000000" font-family="sans-serif" font-size="14" lengthAdjust="spacing" textLength="136" x="27" y="334.9639">ResumeGame() : void</text><text fill="#000000" font-family="sans-serif" font-size="14" lengthAdjust="spacing" textLength="93" x="27" y="351.2607">Update() : void</text><text fill="#000000" font-family="sans-serif" font-size="14" lengthAdjust="spacing" textLength="127" x="27" y="367.5576">FixedUpdate() : void</text><ellipse cx="18" cy="380.5078" fill="#84BE84" rx="3" ry="3" style="stroke:#038048;stroke-width:1.0;"/><text fill="#000000" font-family="sans-serif" font-size="14" lengthAdjust="spacing" textLength="115" x="27" y="383.8545">StartGame() : void</text><ellipse cx="18" cy="396.8047" fill="#84BE84" rx="3" ry="3" style="stroke:#038048;stroke-width:1.0;"/><text fill="#000000" font-family="sans-serif" font-size="14" lengthAdjust="spacing" textLength="92" x="27" y="400.1514">Restart() : void</text></g><!--class MonoBehaviour--><g id="elem_MonoBehaviour"><rect fill="#F1F1F1" height="48" id="MonoBehaviour" rx="2.5" ry="2.5" style="stroke:#181818;stroke-width:0.5;" width="133" x="58.5" y="7"/><ellipse cx="73.5" cy="23" fill="#ADD1B2" rx="11" ry="11" style="stroke:#181818;stroke-width:1.0;"/><path d="M73.4375,18.8281 Q72.6875,18.8281 72.125,19.125 Q71.5625,19.4063 71.1719,19.9375 Q70.7813,20.4688 70.5781,21.25 Q70.3906,22.0156 70.3906,22.9688 Q70.3906,23.9375 70.5625,24.7031 Q70.75,25.4531 71.1094,25.9688 Q71.4844,26.4844 72.0625,26.7656 Q72.6406,27.0313 73.4375,27.0313 Q74.1719,27.0313 74.9063,26.8594 Q75.6563,26.6875 76.5313,26.3906 L76.5313,28.5469 Q76.125,28.7031 75.7344,28.8281 Q75.3438,28.9375 74.9375,29.0156 Q74.5313,29.0938 74.1094,29.125 Q73.6875,29.1719 73.1875,29.1719 Q71.7813,29.1719 70.75,28.7188 Q69.7344,28.2656 69.0625,27.4531 Q68.3906,26.6406 68.0625,25.5 Q67.7344,24.3438 67.7344,22.9531 Q67.7344,21.5781 68.1094,20.4219 Q68.4844,19.2656 69.2031,18.4375 Q69.9219,17.6094 70.9844,17.1563 Q72.0469,16.6875 73.4375,16.6875 Q74.3438,16.6875 75.25,16.9219 Q76.1563,17.1406 76.9844,17.5469 L76.1563,19.6406 Q75.4688,19.3125 74.7813,19.0781 Q74.0938,18.8281 73.4375,18.8281 Z " fill="#000000"/><text fill="#000000" font-family="sans-serif" font-size="14" lengthAdjust="spacing" textLength="101" x="87.5" y="27.8467">MonoBehaviour</text><line style="stroke:#181818;stroke-width:0.5;" x1="59.5" x2="190.5" y1="39" y2="39"/><line style="stroke:#181818;stroke-width:0.5;" x1="59.5" x2="190.5" y1="47" y2="47"/></g><!--class Text--><g id="elem_Text"><rect fill="#F1F1F1" height="48" id="Text" rx="2.5" ry="2.5" style="stroke:#181818;stroke-width:0.5;" width="59" x="95.5" y="467"/><ellipse cx="110.5" cy="483" fill="#ADD1B2" rx="11" ry="11" style="stroke:#181818;stroke-width:1.0;"/><path d="M110.4375,478.8281 Q109.6875,478.8281 109.125,479.125 Q108.5625,479.4063 108.1719,479.9375 Q107.7813,480.4688 107.5781,481.25 Q107.3906,482.0156 107.3906,482.9688 Q107.3906,483.9375 107.5625,484.7031 Q107.75,485.4531 108.1094,485.9688 Q108.4844,486.4844 109.0625,486.7656 Q109.6406,487.0313 110.4375,487.0313 Q111.1719,487.0313 111.9063,486.8594 Q112.6563,486.6875 113.5313,486.3906 L113.5313,488.5469 Q113.125,488.7031 112.7344,488.8281 Q112.3438,488.9375 111.9375,489.0156 Q111.5313,489.0938 111.1094,489.125 Q110.6875,489.1719 110.1875,489.1719 Q108.7813,489.1719 107.75,488.7188 Q106.7344,488.2656 106.0625,487.4531 Q105.3906,486.6406 105.0625,485.5 Q104.7344,484.3438 104.7344,482.9531 Q104.7344,481.5781 105.1094,480.4219 Q105.4844,479.2656 106.2031,478.4375 Q106.9219,477.6094 107.9844,477.1563 Q109.0469,476.6875 110.4375,476.6875 Q111.3438,476.6875 112.25,476.9219 Q113.1563,477.1406 113.9844,477.5469 L113.1563,479.6406 Q112.4688,479.3125 111.7813,479.0781 Q111.0938,478.8281 110.4375,478.8281 Z " fill="#000000"/><text fill="#000000" font-family="sans-serif" font-size="14" lengthAdjust="spacing" textLength="27" x="124.5" y="487.8467">Text</text><line style="stroke:#181818;stroke-width:0.5;" x1="96.5" x2="153.5" y1="499" y2="499"/><line style="stroke:#181818;stroke-width:0.5;" x1="96.5" x2="153.5" y1="507" y2="507"/></g><!--reverse link MonoBehaviour to GameManager--><g id="link_MonoBehaviour_GameManager"><path codeLine="18" d="M125,75.52 C125,87.32 125,100.78 125,114.94 " fill="none" id="MonoBehaviour-backto-GameManager" style="stroke:#181818;stroke-width:1.0;"/><polygon fill="none" points="118,75.12,125,55.12,132,75.12,118,75.12" style="stroke:#181818;stroke-width:1.0;"/></g><!--link GameManager to Text--><g id="link_GameManager_Text"><path codeLine="19" d="M99.63,407.04 C100.84,427.69 103.27,446.87 106.94,461.57 " fill="none" id="GameManager-to-Text" style="stroke:#181818;stroke-width:1.0;"/><polygon fill="#181818" points="108.34,466.78,109.8627,457.0496,107.0401,461.9519,102.1378,459.1294,108.34,466.78" style="stroke:#181818;stroke-width:1.0;"/><text fill="#000000" font-family="sans-serif" font-size="13" lengthAdjust="spacing" textLength="66" x="30.2354" y="456.1313">moneyText</text></g><!--link GameManager to Text--><g id="link_GameManager_Text"><path codeLine="20" d="M125,407.04 C125,427.69 125,446.87 125,461.57 " fill="none" id="GameManager-to-Text-1" style="stroke:#181818;stroke-width:1.0;"/><polygon fill="#181818" points="125,466.78,129,457.78,125,461.78,121,457.78,125,466.78" style="stroke:#181818;stroke-width:1.0;"/><text fill="#000000" font-family="sans-serif" font-size="13" lengthAdjust="spacing" textLength="57" x="131.9469" y="456.1313">scoreText</text></g><!--link GameManager to Text--><g id="link_GameManager_Text"><path codeLine="21" d="M150.37,407.04 C149.16,427.69 146.73,446.87 143.06,461.57 " fill="none" id="GameManager-to-Text-2" style="stroke:#181818;stroke-width:1.0;"/><polygon fill="#181818" points="141.66,466.78,147.8622,459.1294,142.9599,461.9519,140.1373,457.0496,141.66,466.78" style="stroke:#181818;stroke-width:1.0;"/><text fill="#000000" font-family="sans-serif" font-size="13" lengthAdjust="spacing" textLength="96" x="162.2704" y="473.5386">playerNameText</text></g><!--link GameManager to GameManager--><g id="link_GameManager_GameManager"><path codeLine="22" d="M243.04,220.57 C263.66,225.96 278,239.44 278,261 C278,280.71 266.02,293.66 248.21,299.86 " fill="none" id="GameManager-to-GameManager" style="stroke:#181818;stroke-width:1.0;"/><polygon fill="#181818" points="243.04,301.43,252.8149,302.6351,247.8232,299.9736,250.4847,294.982,243.04,301.43" style="stroke:#181818;stroke-width:1.0;"/><text fill="#000000" font-family="sans-serif" font-size="13" lengthAdjust="spacing" textLength="49" x="250.8352" y="300.289">instance</text></g><!--SRC=[VP5DJiD038NtEOMLLL2L2qI8HHTaGw5gu00cSSEe4pkQdwWHS7Scge0a7NKMNhptQVnirngjXH8xsY5ZImO-4mXl0vRSNkD8vZcOsHqKC8Xg_irAk8t99yKH-U2P5RTLJzH4x2d0oq0c6r0Nxo9wXRpr3JhQ2TEOOIUUNQ7OHQ6g5aE_q54Bhh6j7v_KSJLIvT2ufRH7Rwcy6lv0rdSH_T9zgJsgCpKnOtDfM4PM6_vVPlbEmjoofGySb7W3zrzvFhzOChzUdZz0sarxUgMpIs6gru2TTdGBwFykVujI7A9oJUaypWy0]--></g></svg>