<?xml version="1.0" encoding="us-ascii" standalone="no"?><svg xmlns="http://www.w3.org/2000/svg" xmlns:xlink="http://www.w3.org/1999/xlink" contentStyleType="text/css" height="359px" preserveAspectRatio="none" style="width:308px;height:359px;background:#FFFFFF;" version="1.1" viewBox="0 0 308 359" width="308px" zoomAndPan="magnify"><defs/><g><!--class SpawnTile--><g id="elem_SpawnTile"><rect codeLine="1" fill="#F1F1F1" height="129.4844" id="SpawnTile" rx="2.5" ry="2.5" style="stroke:#181818;stroke-width:0.5;" width="263" x="7" y="115"/><ellipse cx="102.75" cy="131" fill="#ADD1B2" rx="11" ry="11" style="stroke:#181818;stroke-width:1.0;"/><path d="M102.6875,126.8281 Q101.9375,126.8281 101.375,127.125 Q100.8125,127.4063 100.4219,127.9375 Q100.0313,128.4688 99.8281,129.25 Q99.6406,130.0156 99.6406,130.9688 Q99.6406,131.9375 99.8125,132.7031 Q100,133.4531 100.3594,133.9688 Q100.7344,134.4844 101.3125,134.7656 Q101.8906,135.0313 102.6875,135.0313 Q103.4219,135.0313 104.1563,134.8594 Q104.9063,134.6875 105.7813,134.3906 L105.7813,136.5469 Q105.375,136.7031 104.9844,136.8281 Q104.5938,136.9375 104.1875,137.0156 Q103.7813,137.0938 103.3594,137.125 Q102.9375,137.1719 102.4375,137.1719 Q101.0313,137.1719 100,136.7188 Q98.9844,136.2656 98.3125,135.4531 Q97.6406,134.6406 97.3125,133.5 Q96.9844,132.3438 96.9844,130.9531 Q96.9844,129.5781 97.3594,128.4219 Q97.7344,127.2656 98.4531,126.4375 Q99.1719,125.6094 100.2344,125.1563 Q101.2969,124.6875 102.6875,124.6875 Q103.5938,124.6875 104.5,124.9219 Q105.4063,125.1406 106.2344,125.5469 L105.4063,127.6406 Q104.7188,127.3125 104.0313,127.0781 Q103.3438,126.8281 102.6875,126.8281 Z " fill="#000000"/><text fill="#000000" font-family="sans-serif" font-size="14" lengthAdjust="spacing" textLength="63" x="123.25" y="135.8467">SpawnTile</text><line style="stroke:#181818;stroke-width:0.5;" x1="8" x2="269" y1="147" y2="147"/><ellipse cx="18" cy="160.6484" fill="none" rx="3" ry="3" style="stroke:#038048;stroke-width:1.0;"/><text fill="#000000" font-family="sans-serif" font-size="14" lengthAdjust="spacing" textLength="237" x="27" y="163.9951">maxDistanceFromPlayer : float = 0.5f</text><ellipse cx="18" cy="176.9453" fill="none" rx="3" ry="3" style="stroke:#038048;stroke-width:1.0;"/><text fill="#000000" font-family="sans-serif" font-size="14" lengthAdjust="spacing" textLength="219" x="27" y="180.292">distanceBetweenTiles : float = 5.0f</text><ellipse cx="18" cy="193.2422" fill="none" rx="3" ry="3" style="stroke:#038048;stroke-width:1.0;"/><text fill="#000000" font-family="sans-serif" font-size="14" lengthAdjust="spacing" textLength="167" x="27" y="196.5889">randomValue : float = 0.7f</text><line style="stroke:#181818;stroke-width:0.5;" x1="8" x2="269" y1="203.8906" y2="203.8906"/><text fill="#000000" font-family="sans-serif" font-size="14" lengthAdjust="spacing" textLength="77" x="13" y="220.8857">Start() : void</text><text fill="#000000" font-family="sans-serif" font-size="14" lengthAdjust="spacing" textLength="93" x="13" y="237.1826">Update() : void</text></g><!--class MonoBehaviour--><g id="elem_MonoBehaviour"><rect fill="#F1F1F1" height="48" id="MonoBehaviour" rx="2.5" ry="2.5" style="stroke:#181818;stroke-width:0.5;" width="133" x="72" y="7"/><ellipse cx="87" cy="23" fill="#ADD1B2" rx="11" ry="11" style="stroke:#181818;stroke-width:1.0;"/><path d="M86.9375,18.8281 Q86.1875,18.8281 85.625,19.125 Q85.0625,19.4063 84.6719,19.9375 Q84.2813,20.4688 84.0781,21.25 Q83.8906,22.0156 83.8906,22.9688 Q83.8906,23.9375 84.0625,24.7031 Q84.25,25.4531 84.6094,25.9688 Q84.9844,26.4844 85.5625,26.7656 Q86.1406,27.0313 86.9375,27.0313 Q87.6719,27.0313 88.4063,26.8594 Q89.1563,26.6875 90.0313,26.3906 L90.0313,28.5469 Q89.625,28.7031 89.2344,28.8281 Q88.8438,28.9375 88.4375,29.0156 Q88.0313,29.0938 87.6094,29.125 Q87.1875,29.1719 86.6875,29.1719 Q85.2813,29.1719 84.25,28.7188 Q83.2344,28.2656 82.5625,27.4531 Q81.8906,26.6406 81.5625,25.5 Q81.2344,24.3438 81.2344,22.9531 Q81.2344,21.5781 81.6094,20.4219 Q81.9844,19.2656 82.7031,18.4375 Q83.4219,17.6094 84.4844,17.1563 Q85.5469,16.6875 86.9375,16.6875 Q87.8438,16.6875 88.75,16.9219 Q89.6563,17.1406 90.4844,17.5469 L89.6563,19.6406 Q88.9688,19.3125 88.2813,19.0781 Q87.5938,18.8281 86.9375,18.8281 Z " fill="#000000"/><text fill="#000000" font-family="sans-serif" font-size="14" lengthAdjust="spacing" textLength="101" x="101" y="27.8467">MonoBehaviour</text><line style="stroke:#181818;stroke-width:0.5;" x1="73" x2="204" y1="39" y2="39"/><line style="stroke:#181818;stroke-width:0.5;" x1="73" x2="204" y1="47" y2="47"/></g><!--class GameObject--><g id="elem_GameObject"><rect fill="#F1F1F1" height="48" id="GameObject" rx="2.5" ry="2.5" style="stroke:#181818;stroke-width:0.5;" width="111" x="83" y="304"/><ellipse cx="98" cy="320" fill="#ADD1B2" rx="11" ry="11" style="stroke:#181818;stroke-width:1.0;"/><path d="M97.9375,315.8281 Q97.1875,315.8281 96.625,316.125 Q96.0625,316.4063 95.6719,316.9375 Q95.2813,317.4688 95.0781,318.25 Q94.8906,319.0156 94.8906,319.9688 Q94.8906,320.9375 95.0625,321.7031 Q95.25,322.4531 95.6094,322.9688 Q95.9844,323.4844 96.5625,323.7656 Q97.1406,324.0313 97.9375,324.0313 Q98.6719,324.0313 99.4063,323.8594 Q100.1563,323.6875 101.0313,323.3906 L101.0313,325.5469 Q100.625,325.7031 100.2344,325.8281 Q99.8438,325.9375 99.4375,326.0156 Q99.0313,326.0938 98.6094,326.125 Q98.1875,326.1719 97.6875,326.1719 Q96.2813,326.1719 95.25,325.7188 Q94.2344,325.2656 93.5625,324.4531 Q92.8906,323.6406 92.5625,322.5 Q92.2344,321.3438 92.2344,319.9531 Q92.2344,318.5781 92.6094,317.4219 Q92.9844,316.2656 93.7031,315.4375 Q94.4219,314.6094 95.4844,314.1563 Q96.5469,313.6875 97.9375,313.6875 Q98.8438,313.6875 99.75,313.9219 Q100.6563,314.1406 101.4844,314.5469 L100.6563,316.6406 Q99.9688,316.3125 99.2813,316.0781 Q98.5938,315.8281 97.9375,315.8281 Z " fill="#000000"/><text fill="#000000" font-family="sans-serif" font-size="14" lengthAdjust="spacing" textLength="79" x="112" y="324.8467">GameObject</text><line style="stroke:#181818;stroke-width:0.5;" x1="84" x2="193" y1="336" y2="336"/><line style="stroke:#181818;stroke-width:0.5;" x1="84" x2="193" y1="344" y2="344"/></g><!--reverse link MonoBehaviour to SpawnTile--><g id="link_MonoBehaviour_SpawnTile"><path codeLine="8" d="M138.5,75.6 C138.5,87.95 138.5,101.66 138.5,114.93 " fill="none" id="MonoBehaviour-backto-SpawnTile" style="stroke:#181818;stroke-width:1.0;"/><polygon fill="none" points="131.5,75.21,138.5,55.21,145.5,75.21,131.5,75.21" style="stroke:#181818;stroke-width:1.0;"/></g><!--link SpawnTile to GameObject--><g id="link_SpawnTile_GameObject"><path codeLine="9" d="M86.39,244.33 C84.8,263.48 88.07,283.5 96.2,299.04 " fill="none" id="SpawnTile-to-GameObject" style="stroke:#181818;stroke-width:1.0;"/><polygon fill="#181818" points="98.87,303.71,97.8708,293.912,96.3862,299.3705,90.9277,297.886,98.87,303.71" style="stroke:#181818;stroke-width:1.0;"/><text fill="#000000" font-family="sans-serif" font-size="13" lengthAdjust="spacing" textLength="72" x="8.4352" y="293.0443">tileToSpawn</text></g><!--link SpawnTile to GameObject--><g id="link_SpawnTile_GameObject"><path codeLine="10" d="M112.44,244.33 C111.66,263.31 113.26,283.15 117.24,298.64 " fill="none" id="SpawnTile-to-GameObject-1" style="stroke:#181818;stroke-width:1.0;"/><polygon fill="#181818" points="118.69,303.71,120.0905,293.9612,117.3296,298.8986,112.3922,296.1378,118.69,303.71" style="stroke:#181818;stroke-width:1.0;"/><text fill="#000000" font-family="sans-serif" font-size="13" lengthAdjust="spacing" textLength="94" x="125.3176" y="293.0443">referenceObject</text></g><!--link SpawnTile to GameObject--><g id="link_SpawnTile_GameObject"><path codeLine="11" d="M138.5,244.33 C138.5,263.31 138.5,283.15 138.5,298.64 " fill="none" id="SpawnTile-to-GameObject-2" style="stroke:#181818;stroke-width:1.0;"/><polygon fill="#181818" points="138.5,303.71,142.5,294.71,138.5,298.71,134.5,294.71,138.5,303.71" style="stroke:#181818;stroke-width:1.0;"/><text fill="#000000" font-family="sans-serif" font-size="13" lengthAdjust="spacing" textLength="36" x="98.1125" y="293.0443">player</text></g><!--link SpawnTile to GameObject--><g id="link_SpawnTile_GameObject"><path codeLine="12" d="M164.56,244.33 C165.34,263.31 163.74,283.15 159.76,298.64 " fill="none" id="SpawnTile-to-GameObject-3" style="stroke:#181818;stroke-width:1.0;"/><polygon fill="#181818" points="158.31,303.71,164.6078,296.1378,159.6704,298.8986,156.9095,293.9612,158.31,303.71" style="stroke:#181818;stroke-width:1.0;"/><text fill="#000000" font-family="sans-serif" font-size="13" lengthAdjust="spacing" textLength="99" x="202.4951" y="305.1156">groundToSpawn</text></g><!--link SpawnTile to GameObject--><g id="link_SpawnTile_GameObject"><path codeLine="13" d="M190.61,244.33 C192.2,263.48 188.93,283.5 180.8,299.04 " fill="none" id="SpawnTile-to-GameObject-4" style="stroke:#181818;stroke-width:1.0;"/><polygon fill="#181818" points="178.13,303.71,186.0723,297.886,180.6138,299.3705,179.1292,293.912,178.13,303.71" style="stroke:#181818;stroke-width:1.0;"/><text fill="#000000" font-family="sans-serif" font-size="13" lengthAdjust="spacing" textLength="63" x="195.4679" y="293.0443">coinPrefab</text></g><!--SRC=[ZT0z2y8m40RWlR_YS5AafOi8eWv5T18BVkndSzL8cYjfMXNrlnkgKdKGCuNt7kvoIHGM1InpFEgLL0GN3zpfGeQdYImiweIcXhDOuPaC321LZ1P640Qzz4d5qqLaZqHrc-9DzeBm9GrgmTa6LKaVhVeFiBHeRBlZIXLBKKVhNA2b9hjvSzOSqHuhoQM1uTNtczTxpHw-FuQMTRSLrs4BPfZHOdkWn7upGoaPSXiyohzeNl_3Bx4pN6hnnzI4fOxTQDo-gpi0]--></g></svg>