<?xml version="1.0" encoding="us-ascii" standalone="no"?><svg xmlns="http://www.w3.org/2000/svg" xmlns:xlink="http://www.w3.org/1999/xlink" contentStyleType="text/css" height="392px" preserveAspectRatio="none" style="width:325px;height:392px;background:#FFFFFF;" version="1.1" viewBox="0 0 325 392" width="325px" zoomAndPan="magnify"><defs/><g><!--class SpawnTile--><g id="elem_SpawnTile"><rect codeLine="1" fill="#F1F1F1" height="162.0781" id="SpawnTile" rx="2.5" ry="2.5" style="stroke:#181818;stroke-width:0.5;" width="263" x="9.913" y="115"/><ellipse cx="105.663" cy="131" fill="#ADD1B2" rx="11" ry="11" style="stroke:#181818;stroke-width:1.0;"/><path d="M105.6005,126.8281 Q104.8505,126.8281 104.288,127.125 Q103.7255,127.4063 103.3349,127.9375 Q102.9443,128.4688 102.7411,129.25 Q102.5536,130.0156 102.5536,130.9688 Q102.5536,131.9375 102.7255,132.7031 Q102.913,133.4531 103.2724,133.9688 Q103.6474,134.4844 104.2255,134.7656 Q104.8036,135.0313 105.6005,135.0313 Q106.3349,135.0313 107.0693,134.8594 Q107.8193,134.6875 108.6943,134.3906 L108.6943,136.5469 Q108.288,136.7031 107.8974,136.8281 Q107.5068,136.9375 107.1005,137.0156 Q106.6943,137.0938 106.2724,137.125 Q105.8505,137.1719 105.3505,137.1719 Q103.9443,137.1719 102.913,136.7188 Q101.8974,136.2656 101.2255,135.4531 Q100.5536,134.6406 100.2255,133.5 Q99.8974,132.3438 99.8974,130.9531 Q99.8974,129.5781 100.2724,128.4219 Q100.6474,127.2656 101.3661,126.4375 Q102.0849,125.6094 103.1474,125.1563 Q104.2099,124.6875 105.6005,124.6875 Q106.5068,124.6875 107.413,124.9219 Q108.3193,125.1406 109.1474,125.5469 L108.3193,127.6406 Q107.6318,127.3125 106.9443,127.0781 Q106.2568,126.8281 105.6005,126.8281 Z " fill="#000000"/><text fill="#000000" font-family="sans-serif" font-size="14" lengthAdjust="spacing" textLength="63" x="126.163" y="135.8467">SpawnTile</text><line style="stroke:#181818;stroke-width:0.5;" x1="10.913" x2="271.913" y1="147" y2="147"/><ellipse cx="20.913" cy="160.6484" fill="none" rx="3" ry="3" style="stroke:#038048;stroke-width:1.0;"/><text fill="#000000" font-family="sans-serif" font-size="14" lengthAdjust="spacing" textLength="237" x="29.913" y="163.9951">maxDistanceFromPlayer : float = 0.5f</text><ellipse cx="20.913" cy="176.9453" fill="none" rx="3" ry="3" style="stroke:#038048;stroke-width:1.0;"/><text fill="#000000" font-family="sans-serif" font-size="14" lengthAdjust="spacing" textLength="219" x="29.913" y="180.292">distanceBetweenTiles : float = 5.0f</text><ellipse cx="20.913" cy="193.2422" fill="none" rx="3" ry="3" style="stroke:#038048;stroke-width:1.0;"/><text fill="#000000" font-family="sans-serif" font-size="14" lengthAdjust="spacing" textLength="167" x="29.913" y="196.5889">randomValue : float = 0.7f</text><ellipse cx="20.913" cy="209.5391" fill="none" rx="3" ry="3" style="stroke:#038048;stroke-width:1.0;"/><text fill="#000000" font-family="sans-serif" font-size="14" lengthAdjust="spacing" textLength="202" x="29.913" y="212.8857">obstacleSpawnRate : float = 0.1f</text><line style="stroke:#181818;stroke-width:0.5;" x1="10.913" x2="271.913" y1="220.1875" y2="220.1875"/><ellipse cx="20.913" cy="233.8359" fill="#84BE84" rx="3" ry="3" style="stroke:#038048;stroke-width:1.0;"/><text fill="#000000" font-family="sans-serif" font-size="14" lengthAdjust="spacing" textLength="222" x="29.913" y="237.1826">changePlayer(p:GameObject) : void</text><text fill="#000000" font-family="sans-serif" font-size="14" lengthAdjust="spacing" textLength="77" x="29.913" y="253.4795">Start() : void</text><text fill="#000000" font-family="sans-serif" font-size="14" lengthAdjust="spacing" textLength="93" x="29.913" y="269.7764">Update() : void</text></g><!--class MonoBehaviour--><g id="elem_MonoBehaviour"><rect fill="#F1F1F1" height="48" id="MonoBehaviour" rx="2.5" ry="2.5" style="stroke:#181818;stroke-width:0.5;" width="133" x="74.913" y="7"/><ellipse cx="89.913" cy="23" fill="#ADD1B2" rx="11" ry="11" style="stroke:#181818;stroke-width:1.0;"/><path d="M89.8505,18.8281 Q89.1005,18.8281 88.538,19.125 Q87.9755,19.4063 87.5849,19.9375 Q87.1943,20.4688 86.9911,21.25 Q86.8036,22.0156 86.8036,22.9688 Q86.8036,23.9375 86.9755,24.7031 Q87.163,25.4531 87.5224,25.9688 Q87.8974,26.4844 88.4755,26.7656 Q89.0536,27.0313 89.8505,27.0313 Q90.5849,27.0313 91.3193,26.8594 Q92.0693,26.6875 92.9443,26.3906 L92.9443,28.5469 Q92.538,28.7031 92.1474,28.8281 Q91.7568,28.9375 91.3505,29.0156 Q90.9443,29.0938 90.5224,29.125 Q90.1005,29.1719 89.6005,29.1719 Q88.1943,29.1719 87.163,28.7188 Q86.1474,28.2656 85.4755,27.4531 Q84.8036,26.6406 84.4755,25.5 Q84.1474,24.3438 84.1474,22.9531 Q84.1474,21.5781 84.5224,20.4219 Q84.8974,19.2656 85.6161,18.4375 Q86.3349,17.6094 87.3974,17.1563 Q88.4599,16.6875 89.8505,16.6875 Q90.7568,16.6875 91.663,16.9219 Q92.5693,17.1406 93.3974,17.5469 L92.5693,19.6406 Q91.8818,19.3125 91.1943,19.0781 Q90.5068,18.8281 89.8505,18.8281 Z " fill="#000000"/><text fill="#000000" font-family="sans-serif" font-size="14" lengthAdjust="spacing" textLength="101" x="103.913" y="27.8467">MonoBehaviour</text><line style="stroke:#181818;stroke-width:0.5;" x1="75.913" x2="206.913" y1="39" y2="39"/><line style="stroke:#181818;stroke-width:0.5;" x1="75.913" x2="206.913" y1="47" y2="47"/></g><!--class GameObject--><g id="elem_GameObject"><rect fill="#F1F1F1" height="48" id="GameObject" rx="2.5" ry="2.5" style="stroke:#181818;stroke-width:0.5;" width="111" x="85.913" y="337"/><ellipse cx="100.913" cy="353" fill="#ADD1B2" rx="11" ry="11" style="stroke:#181818;stroke-width:1.0;"/><path d="M100.8505,348.8281 Q100.1005,348.8281 99.538,349.125 Q98.9755,349.4063 98.5849,349.9375 Q98.1943,350.4688 97.9911,351.25 Q97.8036,352.0156 97.8036,352.9688 Q97.8036,353.9375 97.9755,354.7031 Q98.163,355.4531 98.5224,355.9688 Q98.8974,356.4844 99.4755,356.7656 Q100.0536,357.0313 100.8505,357.0313 Q101.5849,357.0313 102.3193,356.8594 Q103.0693,356.6875 103.9443,356.3906 L103.9443,358.5469 Q103.538,358.7031 103.1474,358.8281 Q102.7568,358.9375 102.3505,359.0156 Q101.9443,359.0938 101.5224,359.125 Q101.1005,359.1719 100.6005,359.1719 Q99.1943,359.1719 98.163,358.7188 Q97.1474,358.2656 96.4755,357.4531 Q95.8036,356.6406 95.4755,355.5 Q95.1474,354.3438 95.1474,352.9531 Q95.1474,351.5781 95.5224,350.4219 Q95.8974,349.2656 96.6161,348.4375 Q97.3349,347.6094 98.3974,347.1563 Q99.4599,346.6875 100.8505,346.6875 Q101.7568,346.6875 102.663,346.9219 Q103.5693,347.1406 104.3974,347.5469 L103.5693,349.6406 Q102.8818,349.3125 102.1943,349.0781 Q101.5068,348.8281 100.8505,348.8281 Z " fill="#000000"/><text fill="#000000" font-family="sans-serif" font-size="14" lengthAdjust="spacing" textLength="79" x="114.913" y="357.8467">GameObject</text><line style="stroke:#181818;stroke-width:0.5;" x1="86.913" x2="195.913" y1="369" y2="369"/><line style="stroke:#181818;stroke-width:0.5;" x1="86.913" x2="195.913" y1="377" y2="377"/></g><!--reverse link MonoBehaviour to SpawnTile--><g id="link_MonoBehaviour_SpawnTile"><path codeLine="10" d="M141.413,75.06 C141.413,87.28 141.413,101 141.413,114.68 " fill="none" id="MonoBehaviour-backto-SpawnTile" style="stroke:#181818;stroke-width:1.0;"/><polygon fill="none" points="134.413,75.01,141.413,55.01,148.413,75.01,134.413,75.01" style="stroke:#181818;stroke-width:1.0;"/></g><!--link SpawnTile to GameObject--><g id="link_SpawnTile_GameObject"><path codeLine="11" d="M49.923,277.07 C49.493,301.47 60.013,326.05 81.473,342.04 " fill="none" id="SpawnTile-to-GameObject" style="stroke:#181818;stroke-width:1.0;"/><polygon fill="#181818" points="85.603,344.92,80.506,336.4926,81.5008,342.0613,75.9321,343.0561,85.603,344.92" style="stroke:#181818;stroke-width:1.0;"/><text fill="#000000" font-family="sans-serif" font-size="13" lengthAdjust="spacing" textLength="72" x="6" y="340.0397">tileToSpawn</text></g><!--link SpawnTile to GameObject--><g id="link_SpawnTile_GameObject"><path codeLine="12" d="M76.173,277.07 C75.923,297.08 80.923,317.22 91.173,332.63 " fill="none" id="SpawnTile-to-GameObject-1" style="stroke:#181818;stroke-width:1.0;"/><polygon fill="#181818" points="94.203,336.85,92.2012,327.2067,91.286,332.7891,85.7037,331.8739,94.203,336.85" style="stroke:#181818;stroke-width:1.0;"/><text fill="#000000" font-family="sans-serif" font-size="13" lengthAdjust="spacing" textLength="94" x="94.1492" y="325.8236">referenceObject</text></g><!--link SpawnTile to GameObject--><g id="link_SpawnTile_GameObject"><path codeLine="13" d="M102.423,277.07 C102.273,296.91 105.203,316.87 111.223,332.24 " fill="none" id="SpawnTile-to-GameObject-2" style="stroke:#181818;stroke-width:1.0;"/><polygon fill="#181818" points="113.193,336.85,113.3502,327.0024,111.2355,332.2491,105.9888,330.1344,113.193,336.85" style="stroke:#181818;stroke-width:1.0;"/><text fill="#000000" font-family="sans-serif" font-size="13" lengthAdjust="spacing" textLength="36" x="65.3491" y="325.8236">player</text></g><!--link SpawnTile to GameObject--><g id="link_SpawnTile_GameObject"><path codeLine="14" d="M128.663,277.07 C128.613,296.74 129.563,316.53 131.493,331.84 " fill="none" id="SpawnTile-to-GameObject-3" style="stroke:#181818;stroke-width:1.0;"/><polygon fill="#181818" points="132.183,336.85,134.9084,327.3857,131.496,331.8974,126.9842,328.485,132.183,336.85" style="stroke:#181818;stroke-width:1.0;"/><text fill="#000000" font-family="sans-serif" font-size="13" lengthAdjust="spacing" textLength="99" x="142.5022" y="325.8236">groundToSpawn</text></g><!--link SpawnTile to GameObject--><g id="link_SpawnTile_GameObject"><path codeLine="15" d="M154.913,277.07 C154.963,296.74 153.963,316.53 151.913,331.84 " fill="none" id="SpawnTile-to-GameObject-4" style="stroke:#181818;stroke-width:1.0;"/><polygon fill="#181818" points="151.183,336.85,156.4527,328.5295,151.9121,331.9034,148.5382,327.3629,151.183,336.85" style="stroke:#181818;stroke-width:1.0;"/><text fill="#000000" font-family="sans-serif" font-size="13" lengthAdjust="spacing" textLength="63" x="205.8658" y="326.9436">coinPrefab</text></g><!--link SpawnTile to GameObject--><g id="link_SpawnTile_GameObject"><path codeLine="16" d="M181.153,277.07 C181.313,296.91 178.313,316.87 172.183,332.24 " fill="none" id="SpawnTile-to-GameObject-5" style="stroke:#181818;stroke-width:1.0;"/><polygon fill="#181818" points="170.173,336.85,177.42,330.1805,172.1598,332.2617,170.0787,327.0016,170.173,336.85" style="stroke:#181818;stroke-width:1.0;"/><text fill="#000000" font-family="sans-serif" font-size="13" lengthAdjust="spacing" textLength="125" x="193.5584" y="325.8236">PowerUpScorePrefab</text></g><!--link SpawnTile to GameObject--><g id="link_SpawnTile_GameObject"><path codeLine="17" d="M207.403,277.07 C207.653,297.08 202.603,317.22 192.233,332.63 " fill="none" id="SpawnTile-to-GameObject-6" style="stroke:#181818;stroke-width:1.0;"/><polygon fill="#181818" points="189.173,336.85,197.6922,331.9079,192.1062,332.8008,191.2134,327.2148,189.173,336.85" style="stroke:#181818;stroke-width:1.0;"/><text fill="#000000" font-family="sans-serif" font-size="13" lengthAdjust="spacing" textLength="101" x="204.8332" y="346.2739">SlowDownPrefab</text></g><!--link SpawnTile to GameObject--><g id="link_SpawnTile_GameObject"><path codeLine="18" d="M233.653,277.07 C234.083,301.62 223.353,326.36 201.443,342.34 " fill="none" id="SpawnTile-to-GameObject-7" style="stroke:#181818;stroke-width:1.0;"/><polygon fill="#181818" points="197.223,345.22,206.9084,343.4331,201.3478,342.394,202.3868,336.8334,197.223,345.22" style="stroke:#181818;stroke-width:1.0;"/><text fill="#000000" font-family="sans-serif" font-size="13" lengthAdjust="spacing" textLength="87" x="204.8264" y="356.658">obstaclePrefab</text></g><!--SRC=[ZT5HIyCm40VmztwAOqyJwPWFGnZgmnZw91Qx-NvDhbiapOKqNHNrknkobLg5kZo5ou__9HUXiQuXjzYQZT847mc4TGaLlgrLxT48kdTSPHhVoS4IIiteuHRciqLvelBaLkHReXXJ_v2BsRoJ3etawWLrGuEewmvm4QA4fdYVP_H3TjKniKUpe-ETfdRvW1Kz5Qya_4Nm1rOokjoZyzD1QMjb2ErhNyaZ6rxH7W-A6mStdsdQ3oFfnvAcTp3nORVXM9n0t_GtSrIIep2Gu_4OjV49OsBdk37oZAw2bSb2Qop6LCOjkQtD1JlwN-UQspMtP-Hs7_TNVWC0]--></g></svg>