<?xml version="1.0" encoding="us-ascii" standalone="no"?><svg xmlns="http://www.w3.org/2000/svg" xmlns:xlink="http://www.w3.org/1999/xlink" contentStyleType="text/css" height="267px" preserveAspectRatio="none" style="width:202px;height:267px;background:#FFFFFF;" version="1.1" viewBox="0 0 202 267" width="202px" zoomAndPan="magnify"><defs/><g><!--class PlayerMovement--><g id="elem_PlayerMovement"><rect codeLine="1" fill="#F1F1F1" height="145.7813" id="PlayerMovement" rx="2.5" ry="2.5" style="stroke:#181818;stroke-width:0.5;" width="188" x="7" y="115"/><ellipse cx="43.15" cy="131" fill="#ADD1B2" rx="11" ry="11" style="stroke:#181818;stroke-width:1.0;"/><path d="M43.0875,126.8281 Q42.3375,126.8281 41.775,127.125 Q41.2125,127.4063 40.8219,127.9375 Q40.4313,128.4688 40.2281,129.25 Q40.0406,130.0156 40.0406,130.9688 Q40.0406,131.9375 40.2125,132.7031 Q40.4,133.4531 40.7594,133.9688 Q41.1344,134.4844 41.7125,134.7656 Q42.2906,135.0313 43.0875,135.0313 Q43.8219,135.0313 44.5563,134.8594 Q45.3063,134.6875 46.1813,134.3906 L46.1813,136.5469 Q45.775,136.7031 45.3844,136.8281 Q44.9938,136.9375 44.5875,137.0156 Q44.1813,137.0938 43.7594,137.125 Q43.3375,137.1719 42.8375,137.1719 Q41.4313,137.1719 40.4,136.7188 Q39.3844,136.2656 38.7125,135.4531 Q38.0406,134.6406 37.7125,133.5 Q37.3844,132.3438 37.3844,130.9531 Q37.3844,129.5781 37.7594,128.4219 Q38.1344,127.2656 38.8531,126.4375 Q39.5719,125.6094 40.6344,125.1563 Q41.6969,124.6875 43.0875,124.6875 Q43.9938,124.6875 44.9,124.9219 Q45.8063,125.1406 46.6344,125.5469 L45.8063,127.6406 Q45.1188,127.3125 44.4313,127.0781 Q43.7438,126.8281 43.0875,126.8281 Z " fill="#000000"/><text fill="#000000" font-family="sans-serif" font-size="14" lengthAdjust="spacing" textLength="109" x="61.85" y="135.8467">PlayerMovement</text><line style="stroke:#181818;stroke-width:0.5;" x1="8" x2="194" y1="147" y2="147"/><ellipse cx="18" cy="160.6484" fill="none" rx="3" ry="3" style="stroke:#038048;stroke-width:1.0;"/><text fill="#000000" font-family="sans-serif" font-size="14" lengthAdjust="spacing" textLength="162" x="27" y="163.9951">jumpSpeed : float = 10.0f</text><line style="stroke:#181818;stroke-width:0.5;" x1="8" x2="194" y1="171.2969" y2="171.2969"/><ellipse cx="18" cy="184.9453" fill="#84BE84" rx="3" ry="3" style="stroke:#038048;stroke-width:1.0;"/><text fill="#000000" font-family="sans-serif" font-size="14" lengthAdjust="spacing" textLength="156" x="27" y="188.292">setSpeed(val:float) : void</text><ellipse cx="18" cy="201.2422" fill="#84BE84" rx="3" ry="3" style="stroke:#038048;stroke-width:1.0;"/><text fill="#000000" font-family="sans-serif" font-size="14" lengthAdjust="spacing" textLength="108" x="27" y="204.5889">getSpeed() : float</text><ellipse cx="18" cy="217.5391" fill="#84BE84" rx="3" ry="3" style="stroke:#038048;stroke-width:1.0;"/><text fill="#000000" font-family="sans-serif" font-size="14" lengthAdjust="spacing" textLength="109" x="27" y="220.8857">slowdown() : void</text><text fill="#000000" font-family="sans-serif" font-size="14" lengthAdjust="spacing" textLength="77" x="27" y="237.1826">Start() : void</text><text fill="#000000" font-family="sans-serif" font-size="14" lengthAdjust="spacing" textLength="93" x="27" y="253.4795">Update() : void</text></g><!--class MonoBehaviour--><g id="elem_MonoBehaviour"><rect fill="#F1F1F1" height="48" id="MonoBehaviour" rx="2.5" ry="2.5" style="stroke:#181818;stroke-width:0.5;" width="133" x="34.5" y="7"/><ellipse cx="49.5" cy="23" fill="#ADD1B2" rx="11" ry="11" style="stroke:#181818;stroke-width:1.0;"/><path d="M49.4375,18.8281 Q48.6875,18.8281 48.125,19.125 Q47.5625,19.4063 47.1719,19.9375 Q46.7813,20.4688 46.5781,21.25 Q46.3906,22.0156 46.3906,22.9688 Q46.3906,23.9375 46.5625,24.7031 Q46.75,25.4531 47.1094,25.9688 Q47.4844,26.4844 48.0625,26.7656 Q48.6406,27.0313 49.4375,27.0313 Q50.1719,27.0313 50.9063,26.8594 Q51.6563,26.6875 52.5313,26.3906 L52.5313,28.5469 Q52.125,28.7031 51.7344,28.8281 Q51.3438,28.9375 50.9375,29.0156 Q50.5313,29.0938 50.1094,29.125 Q49.6875,29.1719 49.1875,29.1719 Q47.7813,29.1719 46.75,28.7188 Q45.7344,28.2656 45.0625,27.4531 Q44.3906,26.6406 44.0625,25.5 Q43.7344,24.3438 43.7344,22.9531 Q43.7344,21.5781 44.1094,20.4219 Q44.4844,19.2656 45.2031,18.4375 Q45.9219,17.6094 46.9844,17.1563 Q48.0469,16.6875 49.4375,16.6875 Q50.3438,16.6875 51.25,16.9219 Q52.1563,17.1406 52.9844,17.5469 L52.1563,19.6406 Q51.4688,19.3125 50.7813,19.0781 Q50.0938,18.8281 49.4375,18.8281 Z " fill="#000000"/><text fill="#000000" font-family="sans-serif" font-size="14" lengthAdjust="spacing" textLength="101" x="63.5" y="27.8467">MonoBehaviour</text><line style="stroke:#181818;stroke-width:0.5;" x1="35.5" x2="166.5" y1="39" y2="39"/><line style="stroke:#181818;stroke-width:0.5;" x1="35.5" x2="166.5" y1="47" y2="47"/></g><!--reverse link MonoBehaviour to PlayerMovement--><g id="link_MonoBehaviour_PlayerMovement"><path codeLine="9" d="M101,75.41 C101,87.69 101,101.39 101,114.88 " fill="none" id="MonoBehaviour-backto-PlayerMovement" style="stroke:#181818;stroke-width:1.0;"/><polygon fill="none" points="94,75.21,101,55.21,108,75.21,94,75.21" style="stroke:#181818;stroke-width:1.0;"/></g><!--SRC=[Iyv9B2vM2CX9h4mjyiqlIyrDpIjHgEPI009jXQpIt8BWWjJK50KhXRIS_CGI1Li5GmCzWpIeV75g2LXQeomnnmgiG1EeiYm_CmMg81scG1Dc0andJdvvIdvvdWQAXk2InA8ILA7GWfJ4abI4M2sNRtvUlbDgHc9PPdvfaO9DZQukclC1]--></g></svg>