<?xml version="1.0" encoding="us-ascii" standalone="no"?><svg xmlns="http://www.w3.org/2000/svg" xmlns:xlink="http://www.w3.org/1999/xlink" contentStyleType="text/css" height="332px" preserveAspectRatio="none" style="width:346px;height:332px;background:#FFFFFF;" version="1.1" viewBox="0 0 346 332" width="346px" zoomAndPan="magnify"><defs/><g><!--class Player--><g id="elem_Player"><rect codeLine="1" fill="#F1F1F1" height="210.9688" id="Player" rx="2.5" ry="2.5" style="stroke:#181818;stroke-width:0.5;" width="332" x="7" y="115"/><ellipse cx="148.75" cy="131" fill="#ADD1B2" rx="11" ry="11" style="stroke:#181818;stroke-width:1.0;"/><path d="M148.6875,126.8281 Q147.9375,126.8281 147.375,127.125 Q146.8125,127.4063 146.4219,127.9375 Q146.0313,128.4688 145.8281,129.25 Q145.6406,130.0156 145.6406,130.9688 Q145.6406,131.9375 145.8125,132.7031 Q146,133.4531 146.3594,133.9688 Q146.7344,134.4844 147.3125,134.7656 Q147.8906,135.0313 148.6875,135.0313 Q149.4219,135.0313 150.1563,134.8594 Q150.9063,134.6875 151.7813,134.3906 L151.7813,136.5469 Q151.375,136.7031 150.9844,136.8281 Q150.5938,136.9375 150.1875,137.0156 Q149.7813,137.0938 149.3594,137.125 Q148.9375,137.1719 148.4375,137.1719 Q147.0313,137.1719 146,136.7188 Q144.9844,136.2656 144.3125,135.4531 Q143.6406,134.6406 143.3125,133.5 Q142.9844,132.3438 142.9844,130.9531 Q142.9844,129.5781 143.3594,128.4219 Q143.7344,127.2656 144.4531,126.4375 Q145.1719,125.6094 146.2344,125.1563 Q147.2969,124.6875 148.6875,124.6875 Q149.5938,124.6875 150.5,124.9219 Q151.4063,125.1406 152.2344,125.5469 L151.4063,127.6406 Q150.7188,127.3125 150.0313,127.0781 Q149.3438,126.8281 148.6875,126.8281 Z " fill="#000000"/><text fill="#000000" font-family="sans-serif" font-size="14" lengthAdjust="spacing" textLength="40" x="169.25" y="135.8467">Player</text><line style="stroke:#181818;stroke-width:0.5;" x1="8" x2="338" y1="147" y2="147"/><line style="stroke:#181818;stroke-width:0.5;" x1="8" x2="338" y1="155" y2="155"/><ellipse cx="18" cy="168.6484" fill="#84BE84" rx="3" ry="3" style="stroke:#038048;stroke-width:1.0;"/><text fill="#000000" font-family="sans-serif" font-size="14" lengthAdjust="spacing" text-decoration="underline" textLength="162" x="27" y="171.9951">setName(val:string) : void</text><ellipse cx="18" cy="184.9453" fill="#84BE84" rx="3" ry="3" style="stroke:#038048;stroke-width:1.0;"/><text fill="#000000" font-family="sans-serif" font-size="14" lengthAdjust="spacing" textLength="306" x="27" y="188.292">setPlayerMovement(val:PlayerMovement) : void</text><ellipse cx="18" cy="201.2422" fill="#84BE84" rx="3" ry="3" style="stroke:#038048;stroke-width:1.0;"/><text fill="#000000" font-family="sans-serif" font-size="14" lengthAdjust="spacing" text-decoration="underline" textLength="114" x="27" y="204.5889">getName() : string</text><ellipse cx="18" cy="217.5391" fill="#84BE84" rx="3" ry="3" style="stroke:#038048;stroke-width:1.0;"/><text fill="#000000" font-family="sans-serif" font-size="14" lengthAdjust="spacing" text-decoration="underline" textLength="100" x="27" y="220.8857">getMoney() : int</text><ellipse cx="18" cy="233.8359" fill="#84BE84" rx="3" ry="3" style="stroke:#038048;stroke-width:1.0;"/><text fill="#000000" font-family="sans-serif" font-size="14" lengthAdjust="spacing" text-decoration="underline" textLength="104" x="27" y="237.1826">getScore() : float</text><ellipse cx="18" cy="250.1328" fill="#84BE84" rx="3" ry="3" style="stroke:#038048;stroke-width:1.0;"/><text fill="#000000" font-family="sans-serif" font-size="14" lengthAdjust="spacing" text-decoration="underline" textLength="206" x="27" y="253.4795">UpdateMoney(amount:int) : void</text><ellipse cx="18" cy="266.4297" fill="#84BE84" rx="3" ry="3" style="stroke:#038048;stroke-width:1.0;"/><text fill="#000000" font-family="sans-serif" font-size="14" lengthAdjust="spacing" text-decoration="underline" textLength="210" x="27" y="269.7764">UpdateScore(amount:float) : void</text><text fill="#000000" font-family="sans-serif" font-size="14" lengthAdjust="spacing" textLength="77" x="27" y="286.0732">Start() : void</text><text fill="#000000" font-family="sans-serif" font-size="14" lengthAdjust="spacing" textLength="93" x="27" y="302.3701">Update() : void</text><text fill="#000000" font-family="sans-serif" font-size="14" lengthAdjust="spacing" textLength="120" x="27" y="318.667">checkDeath() : void</text></g><!--class MonoBehaviour--><g id="elem_MonoBehaviour"><rect fill="#F1F1F1" height="48" id="MonoBehaviour" rx="2.5" ry="2.5" style="stroke:#181818;stroke-width:0.5;" width="133" x="106.5" y="7"/><ellipse cx="121.5" cy="23" fill="#ADD1B2" rx="11" ry="11" style="stroke:#181818;stroke-width:1.0;"/><path d="M121.4375,18.8281 Q120.6875,18.8281 120.125,19.125 Q119.5625,19.4063 119.1719,19.9375 Q118.7813,20.4688 118.5781,21.25 Q118.3906,22.0156 118.3906,22.9688 Q118.3906,23.9375 118.5625,24.7031 Q118.75,25.4531 119.1094,25.9688 Q119.4844,26.4844 120.0625,26.7656 Q120.6406,27.0313 121.4375,27.0313 Q122.1719,27.0313 122.9063,26.8594 Q123.6563,26.6875 124.5313,26.3906 L124.5313,28.5469 Q124.125,28.7031 123.7344,28.8281 Q123.3438,28.9375 122.9375,29.0156 Q122.5313,29.0938 122.1094,29.125 Q121.6875,29.1719 121.1875,29.1719 Q119.7813,29.1719 118.75,28.7188 Q117.7344,28.2656 117.0625,27.4531 Q116.3906,26.6406 116.0625,25.5 Q115.7344,24.3438 115.7344,22.9531 Q115.7344,21.5781 116.1094,20.4219 Q116.4844,19.2656 117.2031,18.4375 Q117.9219,17.6094 118.9844,17.1563 Q120.0469,16.6875 121.4375,16.6875 Q122.3438,16.6875 123.25,16.9219 Q124.1563,17.1406 124.9844,17.5469 L124.1563,19.6406 Q123.4688,19.3125 122.7813,19.0781 Q122.0938,18.8281 121.4375,18.8281 Z " fill="#000000"/><text fill="#000000" font-family="sans-serif" font-size="14" lengthAdjust="spacing" textLength="101" x="135.5" y="27.8467">MonoBehaviour</text><line style="stroke:#181818;stroke-width:0.5;" x1="107.5" x2="238.5" y1="39" y2="39"/><line style="stroke:#181818;stroke-width:0.5;" x1="107.5" x2="238.5" y1="47" y2="47"/></g><!--reverse link MonoBehaviour to Player--><g id="link_MonoBehaviour_Player"><path codeLine="13" d="M173,75.55 C173,87.52 173,101.03 173,114.86 " fill="none" id="MonoBehaviour-backto-Player" style="stroke:#181818;stroke-width:1.0;"/><polygon fill="none" points="166,75.37,173,55.37,180,75.37,166,75.37" style="stroke:#181818;stroke-width:1.0;"/></g><!--SRC=[TP112i8m44NtdcAM5Ua5YYjnMn6A1nZIiGscYIJJGAczkxK9IhJEyi_xZs64GkVWh70W2-C6vjd1w1XPYWaSyGaxoZogmh6Lkjb20Tx8Ef8p4BgbyTIHvWLDew_AMzv4-MiVv2j4QJGD2o8rh-mhOMnGN9N17-9ohv4fIB0plUP2_hyeq44PwSMQy1MZvIo9GY_DH4lYTYJazfDFc_aISw0MlJIzXVqZp-Fldm00]--></g></svg>