<?xml version="1.0" encoding="us-ascii" standalone="no"?><svg xmlns="http://www.w3.org/2000/svg" xmlns:xlink="http://www.w3.org/1999/xlink" contentStyleType="text/css" height="235px" preserveAspectRatio="none" style="width:194px;height:235px;background:#FFFFFF;" version="1.1" viewBox="0 0 194 235" width="194px" zoomAndPan="magnify"><defs/><g><!--class PlayerMovement--><g id="elem_PlayerMovement"><rect codeLine="1" fill="#F1F1F1" height="113.1875" id="PlayerMovement" rx="2.5" ry="2.5" style="stroke:#181818;stroke-width:0.5;" width="180" x="7" y="115"/><ellipse cx="39.55" cy="131" fill="#ADD1B2" rx="11" ry="11" style="stroke:#181818;stroke-width:1.0;"/><path d="M39.4875,126.8281 Q38.7375,126.8281 38.175,127.125 Q37.6125,127.4063 37.2219,127.9375 Q36.8313,128.4688 36.6281,129.25 Q36.4406,130.0156 36.4406,130.9688 Q36.4406,131.9375 36.6125,132.7031 Q36.8,133.4531 37.1594,133.9688 Q37.5344,134.4844 38.1125,134.7656 Q38.6906,135.0313 39.4875,135.0313 Q40.2219,135.0313 40.9563,134.8594 Q41.7063,134.6875 42.5813,134.3906 L42.5813,136.5469 Q42.175,136.7031 41.7844,136.8281 Q41.3938,136.9375 40.9875,137.0156 Q40.5813,137.0938 40.1594,137.125 Q39.7375,137.1719 39.2375,137.1719 Q37.8313,137.1719 36.8,136.7188 Q35.7844,136.2656 35.1125,135.4531 Q34.4406,134.6406 34.1125,133.5 Q33.7844,132.3438 33.7844,130.9531 Q33.7844,129.5781 34.1594,128.4219 Q34.5344,127.2656 35.2531,126.4375 Q35.9719,125.6094 37.0344,125.1563 Q38.0969,124.6875 39.4875,124.6875 Q40.3938,124.6875 41.3,124.9219 Q42.2063,125.1406 43.0344,125.5469 L42.2063,127.6406 Q41.5188,127.3125 40.8313,127.0781 Q40.1438,126.8281 39.4875,126.8281 Z " fill="#000000"/><text fill="#000000" font-family="sans-serif" font-size="14" lengthAdjust="spacing" textLength="109" x="57.45" y="135.8467">PlayerMovement</text><line style="stroke:#181818;stroke-width:0.5;" x1="8" x2="186" y1="147" y2="147"/><ellipse cx="18" cy="160.6484" fill="none" rx="3" ry="3" style="stroke:#038048;stroke-width:1.0;"/><text fill="#000000" font-family="sans-serif" font-size="14" lengthAdjust="spacing" textLength="154" x="27" y="163.9951">jumpSpeed : float = 8.0f</text><line style="stroke:#181818;stroke-width:0.5;" x1="8" x2="186" y1="171.2969" y2="171.2969"/><text fill="#000000" font-family="sans-serif" font-size="14" lengthAdjust="spacing" textLength="77" x="13" y="188.292">Start() : void</text><text fill="#000000" font-family="sans-serif" font-size="14" lengthAdjust="spacing" textLength="127" x="13" y="204.5889">FixedUpdate() : void</text><text fill="#000000" font-family="sans-serif" font-size="14" lengthAdjust="spacing" textLength="93" x="13" y="220.8857">Update() : void</text></g><!--class MonoBehaviour--><g id="elem_MonoBehaviour"><rect fill="#F1F1F1" height="48" id="MonoBehaviour" rx="2.5" ry="2.5" style="stroke:#181818;stroke-width:0.5;" width="133" x="30.5" y="7"/><ellipse cx="45.5" cy="23" fill="#ADD1B2" rx="11" ry="11" style="stroke:#181818;stroke-width:1.0;"/><path d="M45.4375,18.8281 Q44.6875,18.8281 44.125,19.125 Q43.5625,19.4063 43.1719,19.9375 Q42.7813,20.4688 42.5781,21.25 Q42.3906,22.0156 42.3906,22.9688 Q42.3906,23.9375 42.5625,24.7031 Q42.75,25.4531 43.1094,25.9688 Q43.4844,26.4844 44.0625,26.7656 Q44.6406,27.0313 45.4375,27.0313 Q46.1719,27.0313 46.9063,26.8594 Q47.6563,26.6875 48.5313,26.3906 L48.5313,28.5469 Q48.125,28.7031 47.7344,28.8281 Q47.3438,28.9375 46.9375,29.0156 Q46.5313,29.0938 46.1094,29.125 Q45.6875,29.1719 45.1875,29.1719 Q43.7813,29.1719 42.75,28.7188 Q41.7344,28.2656 41.0625,27.4531 Q40.3906,26.6406 40.0625,25.5 Q39.7344,24.3438 39.7344,22.9531 Q39.7344,21.5781 40.1094,20.4219 Q40.4844,19.2656 41.2031,18.4375 Q41.9219,17.6094 42.9844,17.1563 Q44.0469,16.6875 45.4375,16.6875 Q46.3438,16.6875 47.25,16.9219 Q48.1563,17.1406 48.9844,17.5469 L48.1563,19.6406 Q47.4688,19.3125 46.7813,19.0781 Q46.0938,18.8281 45.4375,18.8281 Z " fill="#000000"/><text fill="#000000" font-family="sans-serif" font-size="14" lengthAdjust="spacing" textLength="101" x="59.5" y="27.8467">MonoBehaviour</text><line style="stroke:#181818;stroke-width:0.5;" x1="31.5" x2="162.5" y1="39" y2="39"/><line style="stroke:#181818;stroke-width:0.5;" x1="31.5" x2="162.5" y1="47" y2="47"/></g><!--reverse link MonoBehaviour to PlayerMovement--><g id="link_MonoBehaviour_PlayerMovement"><path codeLine="7" d="M97,75.3 C97,87.85 97,101.74 97,114.94 " fill="none" id="MonoBehaviour-backto-PlayerMovement" style="stroke:#181818;stroke-width:1.0;"/><polygon fill="none" points="90,75.18,97,55.18,104,75.18,90,75.18" style="stroke:#181818;stroke-width:1.0;"/></g><!--SRC=[Iyv9B2vM2CX9h4mjyiqlIyrDpIjHgEPI009jXQpIt8BWWjJK50KhXRIS_CGI1Li52ps3DB1qS4bYKOc69b2gB3yp1IpabbcHcX9Qa99OaeegWIvMo-MRdvVlb9gHM9QPNrgaO5EZgulc2000]--></g></svg>