<?xml version="1.0" encoding="us-ascii" standalone="no"?><svg xmlns="http://www.w3.org/2000/svg" xmlns:xlink="http://www.w3.org/1999/xlink" contentStyleType="text/css" height="251px" preserveAspectRatio="none" style="width:257px;height:251px;background:#FFFFFF;" version="1.1" viewBox="0 0 257 251" width="257px" zoomAndPan="magnify"><defs/><g><!--class Player--><g id="elem_Player"><rect codeLine="1" fill="#F1F1F1" height="129.4844" id="Player" rx="2.5" ry="2.5" style="stroke:#181818;stroke-width:0.5;" width="243" x="7" y="115"/><ellipse cx="104.25" cy="131" fill="#ADD1B2" rx="11" ry="11" style="stroke:#181818;stroke-width:1.0;"/><path d="M104.1875,126.8281 Q103.4375,126.8281 102.875,127.125 Q102.3125,127.4063 101.9219,127.9375 Q101.5313,128.4688 101.3281,129.25 Q101.1406,130.0156 101.1406,130.9688 Q101.1406,131.9375 101.3125,132.7031 Q101.5,133.4531 101.8594,133.9688 Q102.2344,134.4844 102.8125,134.7656 Q103.3906,135.0313 104.1875,135.0313 Q104.9219,135.0313 105.6563,134.8594 Q106.4063,134.6875 107.2813,134.3906 L107.2813,136.5469 Q106.875,136.7031 106.4844,136.8281 Q106.0938,136.9375 105.6875,137.0156 Q105.2813,137.0938 104.8594,137.125 Q104.4375,137.1719 103.9375,137.1719 Q102.5313,137.1719 101.5,136.7188 Q100.4844,136.2656 99.8125,135.4531 Q99.1406,134.6406 98.8125,133.5 Q98.4844,132.3438 98.4844,130.9531 Q98.4844,129.5781 98.8594,128.4219 Q99.2344,127.2656 99.9531,126.4375 Q100.6719,125.6094 101.7344,125.1563 Q102.7969,124.6875 104.1875,124.6875 Q105.0938,124.6875 106,124.9219 Q106.9063,125.1406 107.7344,125.5469 L106.9063,127.6406 Q106.2188,127.3125 105.5313,127.0781 Q104.8438,126.8281 104.1875,126.8281 Z " fill="#000000"/><text fill="#000000" font-family="sans-serif" font-size="14" lengthAdjust="spacing" textLength="40" x="124.75" y="135.8467">Player</text><line style="stroke:#181818;stroke-width:0.5;" x1="8" x2="249" y1="147" y2="147"/><line style="stroke:#181818;stroke-width:0.5;" x1="8" x2="249" y1="155" y2="155"/><ellipse cx="18" cy="168.6484" fill="#84BE84" rx="3" ry="3" style="stroke:#038048;stroke-width:1.0;"/><text fill="#000000" font-family="sans-serif" font-size="14" lengthAdjust="spacing" textLength="217" x="27" y="171.9951">updateMoney(ammount:int) : void</text><ellipse cx="18" cy="184.9453" fill="#84BE84" rx="3" ry="3" style="stroke:#038048;stroke-width:1.0;"/><text fill="#000000" font-family="sans-serif" font-size="14" lengthAdjust="spacing" textLength="100" x="27" y="188.292">getMoney() : int</text><text fill="#000000" font-family="sans-serif" font-size="14" lengthAdjust="spacing" textLength="77" x="27" y="204.5889">Start() : void</text><text fill="#000000" font-family="sans-serif" font-size="14" lengthAdjust="spacing" textLength="93" x="27" y="220.8857">Update() : void</text><text fill="#000000" font-family="sans-serif" font-size="14" lengthAdjust="spacing" textLength="120" x="27" y="237.1826">checkDeath() : void</text></g><!--class MonoBehaviour--><g id="elem_MonoBehaviour"><rect fill="#F1F1F1" height="48" id="MonoBehaviour" rx="2.5" ry="2.5" style="stroke:#181818;stroke-width:0.5;" width="133" x="62" y="7"/><ellipse cx="77" cy="23" fill="#ADD1B2" rx="11" ry="11" style="stroke:#181818;stroke-width:1.0;"/><path d="M76.9375,18.8281 Q76.1875,18.8281 75.625,19.125 Q75.0625,19.4063 74.6719,19.9375 Q74.2813,20.4688 74.0781,21.25 Q73.8906,22.0156 73.8906,22.9688 Q73.8906,23.9375 74.0625,24.7031 Q74.25,25.4531 74.6094,25.9688 Q74.9844,26.4844 75.5625,26.7656 Q76.1406,27.0313 76.9375,27.0313 Q77.6719,27.0313 78.4063,26.8594 Q79.1563,26.6875 80.0313,26.3906 L80.0313,28.5469 Q79.625,28.7031 79.2344,28.8281 Q78.8438,28.9375 78.4375,29.0156 Q78.0313,29.0938 77.6094,29.125 Q77.1875,29.1719 76.6875,29.1719 Q75.2813,29.1719 74.25,28.7188 Q73.2344,28.2656 72.5625,27.4531 Q71.8906,26.6406 71.5625,25.5 Q71.2344,24.3438 71.2344,22.9531 Q71.2344,21.5781 71.6094,20.4219 Q71.9844,19.2656 72.7031,18.4375 Q73.4219,17.6094 74.4844,17.1563 Q75.5469,16.6875 76.9375,16.6875 Q77.8438,16.6875 78.75,16.9219 Q79.6563,17.1406 80.4844,17.5469 L79.6563,19.6406 Q78.9688,19.3125 78.2813,19.0781 Q77.5938,18.8281 76.9375,18.8281 Z " fill="#000000"/><text fill="#000000" font-family="sans-serif" font-size="14" lengthAdjust="spacing" textLength="101" x="91" y="27.8467">MonoBehaviour</text><line style="stroke:#181818;stroke-width:0.5;" x1="63" x2="194" y1="39" y2="39"/><line style="stroke:#181818;stroke-width:0.5;" x1="63" x2="194" y1="47" y2="47"/></g><!--reverse link MonoBehaviour to Player--><g id="link_MonoBehaviour_Player"><path codeLine="8" d="M128.5,75.6 C128.5,87.95 128.5,101.66 128.5,114.93 " fill="none" id="MonoBehaviour-backto-Player" style="stroke:#181818;stroke-width:1.0;"/><polygon fill="none" points="121.5,75.21,128.5,55.21,135.5,75.21,121.5,75.21" style="stroke:#181818;stroke-width:1.0;"/></g><!--SRC=[Iyv9B2vM2CX9h4mjKgZcKW02RONIWfJ4abJV_BpKIet4tDpyqhmIgyoy4aq5AuMo_CmKgAhqr1A84f0uK1ei75oIM5IYWQ8o56mQgbXoHcfojajgOaa6GhoM2sXSlbDgHc9PPdvfaO9DZQukr6K0]--></g></svg>