<?xml version="1.0" encoding="us-ascii" standalone="no"?><svg xmlns="http://www.w3.org/2000/svg" xmlns:xlink="http://www.w3.org/1999/xlink" contentStyleType="text/css" height="218px" preserveAspectRatio="none" style="width:184px;height:218px;background:#FFFFFF;" version="1.1" viewBox="0 0 184 218" width="184px" zoomAndPan="magnify"><defs/><g><!--class ScorePowerUp--><g id="elem_ScorePowerUp"><rect codeLine="1" fill="#F1F1F1" height="96.8906" id="ScorePowerUp" rx="2.5" ry="2.5" style="stroke:#181818;stroke-width:0.5;" width="170" x="7" y="115"/><ellipse cx="42.25" cy="131" fill="#ADD1B2" rx="11" ry="11" style="stroke:#181818;stroke-width:1.0;"/><path d="M42.1875,126.8281 Q41.4375,126.8281 40.875,127.125 Q40.3125,127.4063 39.9219,127.9375 Q39.5313,128.4688 39.3281,129.25 Q39.1406,130.0156 39.1406,130.9688 Q39.1406,131.9375 39.3125,132.7031 Q39.5,133.4531 39.8594,133.9688 Q40.2344,134.4844 40.8125,134.7656 Q41.3906,135.0313 42.1875,135.0313 Q42.9219,135.0313 43.6563,134.8594 Q44.4063,134.6875 45.2813,134.3906 L45.2813,136.5469 Q44.875,136.7031 44.4844,136.8281 Q44.0938,136.9375 43.6875,137.0156 Q43.2813,137.0938 42.8594,137.125 Q42.4375,137.1719 41.9375,137.1719 Q40.5313,137.1719 39.5,136.7188 Q38.4844,136.2656 37.8125,135.4531 Q37.1406,134.6406 36.8125,133.5 Q36.4844,132.3438 36.4844,130.9531 Q36.4844,129.5781 36.8594,128.4219 Q37.2344,127.2656 37.9531,126.4375 Q38.6719,125.6094 39.7344,125.1563 Q40.7969,124.6875 42.1875,124.6875 Q43.0938,124.6875 44,124.9219 Q44.9063,125.1406 45.7344,125.5469 L44.9063,127.6406 Q44.2188,127.3125 43.5313,127.0781 Q42.8438,126.8281 42.1875,126.8281 Z " fill="#000000"/><text fill="#000000" font-family="sans-serif" font-size="14" lengthAdjust="spacing" textLength="93" x="60.75" y="135.8467">ScorePowerUp</text><line style="stroke:#181818;stroke-width:0.5;" x1="8" x2="176" y1="147" y2="147"/><ellipse cx="18" cy="160.6484" fill="none" rx="3" ry="3" style="stroke:#038048;stroke-width:1.0;"/><text fill="#000000" font-family="sans-serif" font-size="14" lengthAdjust="spacing" textLength="144" x="27" y="163.9951">turnSpeed : float = 90f</text><line style="stroke:#181818;stroke-width:0.5;" x1="8" x2="176" y1="171.2969" y2="171.2969"/><text fill="#000000" font-family="sans-serif" font-size="14" lengthAdjust="spacing" textLength="77" x="13" y="188.292">Start() : void</text><text fill="#000000" font-family="sans-serif" font-size="14" lengthAdjust="spacing" textLength="93" x="13" y="204.5889">Update() : void</text></g><!--class MonoBehaviour--><g id="elem_MonoBehaviour"><rect fill="#F1F1F1" height="48" id="MonoBehaviour" rx="2.5" ry="2.5" style="stroke:#181818;stroke-width:0.5;" width="133" x="25.5" y="7"/><ellipse cx="40.5" cy="23" fill="#ADD1B2" rx="11" ry="11" style="stroke:#181818;stroke-width:1.0;"/><path d="M40.4375,18.8281 Q39.6875,18.8281 39.125,19.125 Q38.5625,19.4063 38.1719,19.9375 Q37.7813,20.4688 37.5781,21.25 Q37.3906,22.0156 37.3906,22.9688 Q37.3906,23.9375 37.5625,24.7031 Q37.75,25.4531 38.1094,25.9688 Q38.4844,26.4844 39.0625,26.7656 Q39.6406,27.0313 40.4375,27.0313 Q41.1719,27.0313 41.9063,26.8594 Q42.6563,26.6875 43.5313,26.3906 L43.5313,28.5469 Q43.125,28.7031 42.7344,28.8281 Q42.3438,28.9375 41.9375,29.0156 Q41.5313,29.0938 41.1094,29.125 Q40.6875,29.1719 40.1875,29.1719 Q38.7813,29.1719 37.75,28.7188 Q36.7344,28.2656 36.0625,27.4531 Q35.3906,26.6406 35.0625,25.5 Q34.7344,24.3438 34.7344,22.9531 Q34.7344,21.5781 35.1094,20.4219 Q35.4844,19.2656 36.2031,18.4375 Q36.9219,17.6094 37.9844,17.1563 Q39.0469,16.6875 40.4375,16.6875 Q41.3438,16.6875 42.25,16.9219 Q43.1563,17.1406 43.9844,17.5469 L43.1563,19.6406 Q42.4688,19.3125 41.7813,19.0781 Q41.0938,18.8281 40.4375,18.8281 Z " fill="#000000"/><text fill="#000000" font-family="sans-serif" font-size="14" lengthAdjust="spacing" textLength="101" x="54.5" y="27.8467">MonoBehaviour</text><line style="stroke:#181818;stroke-width:0.5;" x1="26.5" x2="157.5" y1="39" y2="39"/><line style="stroke:#181818;stroke-width:0.5;" x1="26.5" x2="157.5" y1="47" y2="47"/></g><!--reverse link MonoBehaviour to ScorePowerUp--><g id="link_MonoBehaviour_ScorePowerUp"><path codeLine="6" d="M92,75.37 C92,88.03 92,101.93 92,114.84 " fill="none" id="MonoBehaviour-backto-ScorePowerUp" style="stroke:#181818;stroke-width:1.0;"/><polygon fill="none" points="85,75.03,92,55.03,99,75.03,85,75.03" style="stroke:#181818;stroke-width:1.0;"/></g><!--SRC=[Iyv9B2vM24xEBqeDo2zFBGejKAZcKW02ROMIqgAyu8BKr1G5AuMqdFp44WLR1Kk3DB1iS4bYKOc69b2cB3yp1ImKMf2IM9AA4AlbyitFotTApKWioymlBLAmgT7LHR480000]--></g></svg>