<?xml version="1.0" encoding="us-ascii" standalone="no"?><svg xmlns="http://www.w3.org/2000/svg" xmlns:xlink="http://www.w3.org/1999/xlink" contentStyleType="text/css" height="202px" preserveAspectRatio="none" style="width:169px;height:202px;background:#FFFFFF;" version="1.1" viewBox="0 0 169 202" width="169px" zoomAndPan="magnify"><defs/><g><!--class SlowDownPowerUp--><g id="elem_SlowDownPowerUp"><rect codeLine="1" fill="#F1F1F1" height="80.5938" id="SlowDownPowerUp" rx="2.5" ry="2.5" style="stroke:#181818;stroke-width:0.5;" width="155" x="7" y="115"/><ellipse cx="22" cy="131" fill="#ADD1B2" rx="11" ry="11" style="stroke:#181818;stroke-width:1.0;"/><path d="M21.9375,126.8281 Q21.1875,126.8281 20.625,127.125 Q20.0625,127.4063 19.6719,127.9375 Q19.2813,128.4688 19.0781,129.25 Q18.8906,130.0156 18.8906,130.9688 Q18.8906,131.9375 19.0625,132.7031 Q19.25,133.4531 19.6094,133.9688 Q19.9844,134.4844 20.5625,134.7656 Q21.1406,135.0313 21.9375,135.0313 Q22.6719,135.0313 23.4063,134.8594 Q24.1563,134.6875 25.0313,134.3906 L25.0313,136.5469 Q24.625,136.7031 24.2344,136.8281 Q23.8438,136.9375 23.4375,137.0156 Q23.0313,137.0938 22.6094,137.125 Q22.1875,137.1719 21.6875,137.1719 Q20.2813,137.1719 19.25,136.7188 Q18.2344,136.2656 17.5625,135.4531 Q16.8906,134.6406 16.5625,133.5 Q16.2344,132.3438 16.2344,130.9531 Q16.2344,129.5781 16.6094,128.4219 Q16.9844,127.2656 17.7031,126.4375 Q18.4219,125.6094 19.4844,125.1563 Q20.5469,124.6875 21.9375,124.6875 Q22.8438,124.6875 23.75,124.9219 Q24.6563,125.1406 25.4844,125.5469 L24.6563,127.6406 Q23.9688,127.3125 23.2813,127.0781 Q22.5938,126.8281 21.9375,126.8281 Z " fill="#000000"/><text fill="#000000" font-family="sans-serif" font-size="14" lengthAdjust="spacing" textLength="123" x="36" y="135.8467">SlowDownPowerUp</text><line style="stroke:#181818;stroke-width:0.5;" x1="8" x2="161" y1="147" y2="147"/><line style="stroke:#181818;stroke-width:0.5;" x1="8" x2="161" y1="155" y2="155"/><text fill="#000000" font-family="sans-serif" font-size="14" lengthAdjust="spacing" textLength="77" x="13" y="171.9951">Start() : void</text><text fill="#000000" font-family="sans-serif" font-size="14" lengthAdjust="spacing" textLength="93" x="13" y="188.292">Update() : void</text></g><!--class MonoBehaviour--><g id="elem_MonoBehaviour"><rect fill="#F1F1F1" height="48" id="MonoBehaviour" rx="2.5" ry="2.5" style="stroke:#181818;stroke-width:0.5;" width="133" x="18" y="7"/><ellipse cx="33" cy="23" fill="#ADD1B2" rx="11" ry="11" style="stroke:#181818;stroke-width:1.0;"/><path d="M32.9375,18.8281 Q32.1875,18.8281 31.625,19.125 Q31.0625,19.4063 30.6719,19.9375 Q30.2813,20.4688 30.0781,21.25 Q29.8906,22.0156 29.8906,22.9688 Q29.8906,23.9375 30.0625,24.7031 Q30.25,25.4531 30.6094,25.9688 Q30.9844,26.4844 31.5625,26.7656 Q32.1406,27.0313 32.9375,27.0313 Q33.6719,27.0313 34.4063,26.8594 Q35.1563,26.6875 36.0313,26.3906 L36.0313,28.5469 Q35.625,28.7031 35.2344,28.8281 Q34.8438,28.9375 34.4375,29.0156 Q34.0313,29.0938 33.6094,29.125 Q33.1875,29.1719 32.6875,29.1719 Q31.2813,29.1719 30.25,28.7188 Q29.2344,28.2656 28.5625,27.4531 Q27.8906,26.6406 27.5625,25.5 Q27.2344,24.3438 27.2344,22.9531 Q27.2344,21.5781 27.6094,20.4219 Q27.9844,19.2656 28.7031,18.4375 Q29.4219,17.6094 30.4844,17.1563 Q31.5469,16.6875 32.9375,16.6875 Q33.8438,16.6875 34.75,16.9219 Q35.6563,17.1406 36.4844,17.5469 L35.6563,19.6406 Q34.9688,19.3125 34.2813,19.0781 Q33.5938,18.8281 32.9375,18.8281 Z " fill="#000000"/><text fill="#000000" font-family="sans-serif" font-size="14" lengthAdjust="spacing" textLength="101" x="47" y="27.8467">MonoBehaviour</text><line style="stroke:#181818;stroke-width:0.5;" x1="19" x2="150" y1="39" y2="39"/><line style="stroke:#181818;stroke-width:0.5;" x1="19" x2="150" y1="47" y2="47"/></g><!--reverse link MonoBehaviour to SlowDownPowerUp--><g id="link_MonoBehaviour_SlowDownPowerUp"><path codeLine="5" d="M84.5,75.14 C84.5,88 84.5,102.04 84.5,114.69 " fill="none" id="MonoBehaviour-backto-SlowDownPowerUp" style="stroke:#181818;stroke-width:1.0;"/><polygon fill="none" points="77.5,75.04,84.5,55.04,91.5,75.04,77.5,75.04" style="stroke:#181818;stroke-width:1.0;"/></g><!--SRC=[Iyv9B2vM2Cx9BtV9ByyBo2zFBGejKAZcKW22u9B4eX8DJGKhXRByp1ImK6X1Ic99AaAibiitFo_VAJKZiImplxH8mQP6LnVTD000]--></g></svg>